<?xml version="1.0" encoding="utf-8"?>
<!-- Generator: Adobe Illustrator 27.5.0, SVG Export Plug-In . SVG Version: 6.00 Build 0)  -->
<svg version="1.1" id="Layer_1" xmlns="http://www.w3.org/2000/svg" xmlns:xlink="http://www.w3.org/1999/xlink" x="0px" y="0px"
	 viewBox="0 0 400 400" style="enable-background:new 0 0 400 400;" xml:space="preserve">
<g>
	<radialGradient id="SVGID_1_" cx="200.8332" cy="109.1668" r="272.3308" gradientUnits="userSpaceOnUse">
		<stop  offset="0" style="stop-color:#1A3333"/>
		<stop  offset="1" style="stop-color:#000000"/>
	</radialGradient>
	<rect style="fill:url(#SVGID_1_);" width="400" height="400"/>
	<g>
		<g>
			
				<linearGradient id="SVGID_00000027563133497043545550000016901302273097420421_" gradientUnits="userSpaceOnUse" x1="128.1477" y1="311.5086" x2="140.1187" y2="299.5376">
				<stop  offset="0" style="stop-color:#D3A53C"/>
				<stop  offset="0.2016" style="stop-color:#F8DF7A"/>
				<stop  offset="0.4162" style="stop-color:#F1D46E"/>
				<stop  offset="0.4297" style="stop-color:#ECCC65"/>
				<stop  offset="0.491" style="stop-color:#D6AD43"/>
				<stop  offset="0.5492" style="stop-color:#C7972B"/>
				<stop  offset="0.6026" style="stop-color:#BD8A1C"/>
				<stop  offset="0.6466" style="stop-color:#BA8517"/>
				<stop  offset="0.6823" style="stop-color:#C6982F"/>
				<stop  offset="0.7499" style="stop-color:#DAB756"/>
				<stop  offset="0.8168" style="stop-color:#E9CF75"/>
				<stop  offset="0.8817" style="stop-color:#F4E18B"/>
				<stop  offset="0.9438" style="stop-color:#FBEB98"/>
				<stop  offset="1" style="stop-color:#FDEF9D"/>
			</linearGradient>
			<path style="fill:url(#SVGID_00000027563133497043545550000016901302273097420421_);" d="M129.399,312.76v-0.221l0.4-0.157
				c0.293-0.113,0.499-0.265,0.607-0.444c0.113-0.173,0.168-0.411,0.168-0.709v-11.573c0-0.308-0.055-0.552-0.168-0.731
				c-0.108-0.179-0.313-0.32-0.607-0.423l-0.4-0.152v-0.221h6.365c1.803,0,3.103,0.325,3.904,0.985
				c0.796,0.655,1.196,1.488,1.196,2.496c0,0.752-0.292,1.435-0.877,2.051c-0.584,0.612-1.585,1.045-3.004,1.295
				c1.624,0.179,2.815,0.605,3.568,1.277c0.757,0.671,1.131,1.488,1.131,2.447c0,0.476-0.103,0.953-0.308,1.435
				c-0.207,0.476-0.559,0.92-1.056,1.316c-0.493,0.4-1.169,0.72-2.024,0.963c-0.861,0.244-1.944,0.368-3.265,0.368H129.399z
				 M133.853,304.933h0.959c0.985,0,1.7-0.228,2.139-0.688c0.432-0.455,0.655-1.256,0.655-2.393c0-1.185-0.2-2.024-0.601-2.528
				c-0.4-0.503-1.049-0.752-1.948-0.752h-1.203V304.933z M133.853,312.316h1.111c1.109,0,1.932-0.297,2.473-0.887
				c0.541-0.591,0.807-1.516,0.807-2.772c0-1.18-0.255-2.025-0.775-2.528c-0.519-0.504-1.369-0.753-2.549-0.753h-1.067V312.316z"/>
			
				<linearGradient id="SVGID_00000063618422819177787300000011684775839624908729_" gradientUnits="userSpaceOnUse" x1="143.0377" y1="312.4053" x2="155.0784" y2="300.3645">
				<stop  offset="0" style="stop-color:#D3A53C"/>
				<stop  offset="0.2016" style="stop-color:#F8DF7A"/>
				<stop  offset="0.4162" style="stop-color:#F1D46E"/>
				<stop  offset="0.4297" style="stop-color:#ECCC65"/>
				<stop  offset="0.491" style="stop-color:#D6AD43"/>
				<stop  offset="0.5492" style="stop-color:#C7972B"/>
				<stop  offset="0.6026" style="stop-color:#BD8A1C"/>
				<stop  offset="0.6466" style="stop-color:#BA8517"/>
				<stop  offset="0.6823" style="stop-color:#C6982F"/>
				<stop  offset="0.7499" style="stop-color:#DAB756"/>
				<stop  offset="0.8168" style="stop-color:#E9CF75"/>
				<stop  offset="0.8817" style="stop-color:#F4E18B"/>
				<stop  offset="0.9438" style="stop-color:#FBEB98"/>
				<stop  offset="1" style="stop-color:#FDEF9D"/>
			</linearGradient>
			<path style="fill:url(#SVGID_00000063618422819177787300000011684775839624908729_);" d="M143.392,312.76v-0.221l0.465-0.157
				c0.299-0.103,0.488-0.239,0.58-0.405c0.087-0.173,0.129-0.412,0.129-0.725v-11.596c0-0.292-0.037-0.525-0.119-0.699
				c-0.081-0.168-0.265-0.303-0.547-0.411l-0.509-0.196v-0.221h6.344c1.744,0,3.081,0.325,4.012,0.985
				c0.931,0.655,1.396,1.569,1.396,2.739c0,0.651-0.243,1.3-0.731,1.949c-0.487,0.649-1.256,1.153-2.305,1.511l3.08,6.117
				c0.135,0.253,0.287,0.455,0.455,0.611c0.173,0.157,0.395,0.293,0.676,0.412l0.288,0.108v0.2h-3.968l-3.281-6.983h-1.511v5.473
				c0,0.281,0.049,0.513,0.136,0.687c0.087,0.179,0.271,0.315,0.552,0.401l0.536,0.2v0.221H143.392z M147.847,305.333h1.067
				c1.067,0,1.836-0.287,2.307-0.856c0.471-0.568,0.709-1.412,0.709-2.539c0-1.136-0.223-1.981-0.667-2.539
				c-0.444-0.552-1.191-0.828-2.24-0.828h-1.176V305.333z"/>
			
				<linearGradient id="SVGID_00000163054028782080855450000002055385917005915583_" gradientUnits="userSpaceOnUse" x1="159.707" y1="314.1279" x2="171.0943" y2="302.7405">
				<stop  offset="0" style="stop-color:#D3A53C"/>
				<stop  offset="0.2016" style="stop-color:#F8DF7A"/>
				<stop  offset="0.4162" style="stop-color:#F1D46E"/>
				<stop  offset="0.4297" style="stop-color:#ECCC65"/>
				<stop  offset="0.491" style="stop-color:#D6AD43"/>
				<stop  offset="0.5492" style="stop-color:#C7972B"/>
				<stop  offset="0.6026" style="stop-color:#BD8A1C"/>
				<stop  offset="0.6466" style="stop-color:#BA8517"/>
				<stop  offset="0.6823" style="stop-color:#C6982F"/>
				<stop  offset="0.7499" style="stop-color:#DAB756"/>
				<stop  offset="0.8168" style="stop-color:#E9CF75"/>
				<stop  offset="0.8817" style="stop-color:#F4E18B"/>
				<stop  offset="0.9438" style="stop-color:#FBEB98"/>
				<stop  offset="1" style="stop-color:#FDEF9D"/>
			</linearGradient>
			<path style="fill:url(#SVGID_00000163054028782080855450000002055385917005915583_);" d="M158.339,312.76v-0.221l0.552-0.2
				c0.297-0.12,0.525-0.26,0.688-0.433c0.161-0.168,0.297-0.407,0.4-0.72l4.569-13.107h1.884l4.499,13.199
				c0.119,0.324,0.253,0.568,0.4,0.741c0.147,0.168,0.379,0.315,0.688,0.433l0.265,0.087v0.221h-5.631v-0.221l0.331-0.108
				c0.313-0.12,0.497-0.288,0.568-0.504c0.065-0.211,0.055-0.465-0.032-0.763l-1.045-3.195h-4.92l-1.067,3.129
				c-0.103,0.325-0.136,0.584-0.097,0.773c0.032,0.196,0.211,0.347,0.519,0.467l0.488,0.2v0.221H158.339z M161.705,307.525h4.635
				l-2.236-6.896L161.705,307.525z"/>
			
				<linearGradient id="SVGID_00000094604655888561422610000017262384972616467377_" gradientUnits="userSpaceOnUse" x1="173.632" y1="312.0289" x2="187.4007" y2="298.2603">
				<stop  offset="0" style="stop-color:#D3A53C"/>
				<stop  offset="0.2016" style="stop-color:#F8DF7A"/>
				<stop  offset="0.4162" style="stop-color:#F1D46E"/>
				<stop  offset="0.4297" style="stop-color:#ECCC65"/>
				<stop  offset="0.491" style="stop-color:#D6AD43"/>
				<stop  offset="0.5492" style="stop-color:#C7972B"/>
				<stop  offset="0.6026" style="stop-color:#BD8A1C"/>
				<stop  offset="0.6466" style="stop-color:#BA8517"/>
				<stop  offset="0.6823" style="stop-color:#C6982F"/>
				<stop  offset="0.7499" style="stop-color:#DAB756"/>
				<stop  offset="0.8168" style="stop-color:#E9CF75"/>
				<stop  offset="0.8817" style="stop-color:#F4E18B"/>
				<stop  offset="0.9438" style="stop-color:#FBEB98"/>
				<stop  offset="1" style="stop-color:#FDEF9D"/>
			</linearGradient>
			<path style="fill:url(#SVGID_00000094604655888561422610000017262384972616467377_);" d="M174.363,312.76v-0.221l0.736-0.223
				c0.265-0.075,0.455-0.216,0.573-0.432c0.119-0.212,0.179-0.467,0.179-0.764v-10.664c-0.163-0.357-0.292-0.623-0.389-0.801
				c-0.097-0.179-0.2-0.325-0.32-0.455c-0.119-0.124-0.281-0.281-0.487-0.476l-0.379-0.375v-0.221h3.924l7.363,10.041v-8.357
				c0-0.299-0.049-0.564-0.147-0.801c-0.097-0.233-0.292-0.391-0.584-0.465l-0.731-0.196v-0.221h3.167v0.221l-0.596,0.196
				c-0.271,0.092-0.433,0.248-0.487,0.465c-0.06,0.221-0.092,0.481-0.092,0.779v13.036h-1.24l-8.472-11.639v9.933
				c0,0.297,0.043,0.547,0.136,0.752c0.085,0.207,0.271,0.357,0.552,0.444l0.665,0.223v0.221H174.363z"/>
			
				<linearGradient id="SVGID_00000122712924956956852700000000923693613019940998_" gradientUnits="userSpaceOnUse" x1="188.1199" y1="311.4355" x2="200.1696" y2="299.3858">
				<stop  offset="0" style="stop-color:#D3A53C"/>
				<stop  offset="0.2016" style="stop-color:#F8DF7A"/>
				<stop  offset="0.4162" style="stop-color:#F1D46E"/>
				<stop  offset="0.4297" style="stop-color:#ECCC65"/>
				<stop  offset="0.491" style="stop-color:#D6AD43"/>
				<stop  offset="0.5492" style="stop-color:#C7972B"/>
				<stop  offset="0.6026" style="stop-color:#BD8A1C"/>
				<stop  offset="0.6466" style="stop-color:#BA8517"/>
				<stop  offset="0.6823" style="stop-color:#C6982F"/>
				<stop  offset="0.7499" style="stop-color:#DAB756"/>
				<stop  offset="0.8168" style="stop-color:#E9CF75"/>
				<stop  offset="0.8817" style="stop-color:#F4E18B"/>
				<stop  offset="0.9438" style="stop-color:#FBEB98"/>
				<stop  offset="1" style="stop-color:#FDEF9D"/>
			</linearGradient>
			<path style="fill:url(#SVGID_00000122712924956956852700000000923693613019940998_);" d="M189.444,312.76v-0.221l0.465-0.179
				c0.471-0.189,0.709-0.568,0.709-1.132v-11.573c0-0.591-0.239-0.969-0.709-1.132l-0.465-0.173v-0.221h5.852
				c1.569,0,2.917,0.292,4.049,0.872c1.131,0.584,2.003,1.423,2.615,2.505c0.617,1.089,0.92,2.393,0.92,3.915
				c0,1.553-0.331,2.875-0.996,3.968c-0.665,1.099-1.592,1.932-2.783,2.507c-1.191,0.579-2.593,0.865-4.201,0.865H189.444z
				 M193.948,312.316h0.952c1.061,0,1.923-0.211,2.572-0.633c0.649-0.416,1.125-1.131,1.429-2.127
				c0.303-0.996,0.455-2.365,0.455-4.115c0-1.743-0.152-3.112-0.455-4.108c-0.304-1.003-0.775-1.711-1.408-2.133
				c-0.633-0.423-1.472-0.628-2.507-0.628h-1.039V312.316z"/>
			
				<linearGradient id="SVGID_00000133531486699784730850000008493541762351840135_" gradientUnits="userSpaceOnUse" x1="210.4213" y1="312.0289" x2="224.19" y2="298.2603">
				<stop  offset="0" style="stop-color:#D3A53C"/>
				<stop  offset="0.2016" style="stop-color:#F8DF7A"/>
				<stop  offset="0.4162" style="stop-color:#F1D46E"/>
				<stop  offset="0.4297" style="stop-color:#ECCC65"/>
				<stop  offset="0.491" style="stop-color:#D6AD43"/>
				<stop  offset="0.5492" style="stop-color:#C7972B"/>
				<stop  offset="0.6026" style="stop-color:#BD8A1C"/>
				<stop  offset="0.6466" style="stop-color:#BA8517"/>
				<stop  offset="0.6823" style="stop-color:#C6982F"/>
				<stop  offset="0.7499" style="stop-color:#DAB756"/>
				<stop  offset="0.8168" style="stop-color:#E9CF75"/>
				<stop  offset="0.8817" style="stop-color:#F4E18B"/>
				<stop  offset="0.9438" style="stop-color:#FBEB98"/>
				<stop  offset="1" style="stop-color:#FDEF9D"/>
			</linearGradient>
			<path style="fill:url(#SVGID_00000133531486699784730850000008493541762351840135_);" d="M211.152,312.76v-0.221l0.736-0.223
				c0.265-0.075,0.455-0.216,0.573-0.432c0.12-0.212,0.179-0.467,0.179-0.764v-10.664c-0.163-0.357-0.292-0.623-0.389-0.801
				c-0.097-0.179-0.2-0.325-0.32-0.455c-0.119-0.124-0.281-0.281-0.487-0.476l-0.379-0.375v-0.221h3.924l7.363,10.041v-8.357
				c0-0.299-0.049-0.564-0.147-0.801c-0.097-0.233-0.292-0.391-0.584-0.465l-0.731-0.196v-0.221h3.167v0.221l-0.596,0.196
				c-0.271,0.092-0.433,0.248-0.487,0.465c-0.06,0.221-0.092,0.481-0.092,0.779v13.036h-1.24l-8.472-11.639v9.933
				c0,0.297,0.044,0.547,0.136,0.752c0.087,0.207,0.271,0.357,0.552,0.444l0.665,0.223v0.221H211.152z"/>
			
				<linearGradient id="SVGID_00000020395280627931886760000002939884418619723398_" gradientUnits="userSpaceOnUse" x1="226.3776" y1="314.128" x2="237.765" y2="302.7405">
				<stop  offset="0" style="stop-color:#D3A53C"/>
				<stop  offset="0.2016" style="stop-color:#F8DF7A"/>
				<stop  offset="0.4162" style="stop-color:#F1D46E"/>
				<stop  offset="0.4297" style="stop-color:#ECCC65"/>
				<stop  offset="0.491" style="stop-color:#D6AD43"/>
				<stop  offset="0.5492" style="stop-color:#C7972B"/>
				<stop  offset="0.6026" style="stop-color:#BD8A1C"/>
				<stop  offset="0.6466" style="stop-color:#BA8517"/>
				<stop  offset="0.6823" style="stop-color:#C6982F"/>
				<stop  offset="0.7499" style="stop-color:#DAB756"/>
				<stop  offset="0.8168" style="stop-color:#E9CF75"/>
				<stop  offset="0.8817" style="stop-color:#F4E18B"/>
				<stop  offset="0.9438" style="stop-color:#FBEB98"/>
				<stop  offset="1" style="stop-color:#FDEF9D"/>
			</linearGradient>
			<path style="fill:url(#SVGID_00000020395280627931886760000002939884418619723398_);" d="M225.009,312.76v-0.221l0.553-0.2
				c0.297-0.12,0.524-0.26,0.687-0.433c0.163-0.168,0.299-0.407,0.401-0.72l4.568-13.107h1.884l4.499,13.199
				c0.119,0.324,0.255,0.568,0.401,0.741c0.145,0.168,0.379,0.315,0.687,0.433l0.265,0.087v0.221h-5.629v-0.221l0.329-0.108
				c0.315-0.12,0.499-0.288,0.569-0.504c0.064-0.211,0.053-0.465-0.033-0.763l-1.044-3.195h-4.921l-1.067,3.129
				c-0.103,0.325-0.135,0.584-0.097,0.773c0.033,0.196,0.212,0.347,0.52,0.467l0.487,0.2v0.221H225.009z M228.377,307.525h4.633
				l-2.236-6.896L228.377,307.525z"/>
			
				<linearGradient id="SVGID_00000139977635910770564640000012891847829640026536_" gradientUnits="userSpaceOnUse" x1="241.2033" y1="313.2536" x2="256.8233" y2="297.6336">
				<stop  offset="0" style="stop-color:#D3A53C"/>
				<stop  offset="0.2016" style="stop-color:#F8DF7A"/>
				<stop  offset="0.4162" style="stop-color:#F1D46E"/>
				<stop  offset="0.4297" style="stop-color:#ECCC65"/>
				<stop  offset="0.491" style="stop-color:#D6AD43"/>
				<stop  offset="0.5492" style="stop-color:#C7972B"/>
				<stop  offset="0.6026" style="stop-color:#BD8A1C"/>
				<stop  offset="0.6466" style="stop-color:#BA8517"/>
				<stop  offset="0.6823" style="stop-color:#C6982F"/>
				<stop  offset="0.7499" style="stop-color:#DAB756"/>
				<stop  offset="0.8168" style="stop-color:#E9CF75"/>
				<stop  offset="0.8817" style="stop-color:#F4E18B"/>
				<stop  offset="0.9438" style="stop-color:#FBEB98"/>
				<stop  offset="1" style="stop-color:#FDEF9D"/>
			</linearGradient>
			<path style="fill:url(#SVGID_00000139977635910770564640000012891847829640026536_);" d="M240.709,312.76v-0.221l0.444-0.157
				c0.503-0.163,0.752-0.579,0.752-1.261v-11.352c0-0.297-0.032-0.536-0.097-0.709c-0.071-0.179-0.244-0.324-0.525-0.444
				l-0.573-0.265v-0.221h4.276l4.104,10.729l3.859-10.729h4.369v0.221l-0.357,0.131c-0.281,0.103-0.471,0.249-0.573,0.433
				c-0.104,0.184-0.157,0.427-0.157,0.72v11.595c0,0.299,0.037,0.525,0.113,0.688c0.071,0.163,0.249,0.303,0.531,0.423l0.444,0.2
				v0.221h-5.521v-0.221l0.465-0.2c0.281-0.12,0.46-0.26,0.531-0.423c0.075-0.163,0.113-0.389,0.113-0.688v-4.985l0.043-6.344
				l-4.633,12.861h-1.109l-4.835-12.705l0.065,5.523v5.587c0,0.324,0.048,0.589,0.145,0.784c0.097,0.201,0.288,0.347,0.564,0.433
				l0.492,0.157v0.221H240.709z"/>
			
				<linearGradient id="SVGID_00000168117602490529133560000000955972239775814302_" gradientUnits="userSpaceOnUse" x1="258.5096" y1="311.868" x2="271.1364" y2="299.2412">
				<stop  offset="0" style="stop-color:#D3A53C"/>
				<stop  offset="0.2016" style="stop-color:#F8DF7A"/>
				<stop  offset="0.4162" style="stop-color:#F1D46E"/>
				<stop  offset="0.4297" style="stop-color:#ECCC65"/>
				<stop  offset="0.491" style="stop-color:#D6AD43"/>
				<stop  offset="0.5492" style="stop-color:#C7972B"/>
				<stop  offset="0.6026" style="stop-color:#BD8A1C"/>
				<stop  offset="0.6466" style="stop-color:#BA8517"/>
				<stop  offset="0.6823" style="stop-color:#C6982F"/>
				<stop  offset="0.7499" style="stop-color:#DAB756"/>
				<stop  offset="0.8168" style="stop-color:#E9CF75"/>
				<stop  offset="0.8817" style="stop-color:#F4E18B"/>
				<stop  offset="0.9438" style="stop-color:#FBEB98"/>
				<stop  offset="1" style="stop-color:#FDEF9D"/>
			</linearGradient>
			<path style="fill:url(#SVGID_00000168117602490529133560000000955972239775814302_);" d="M259.401,312.76v-0.221l0.509-0.2
				c0.253-0.103,0.427-0.239,0.524-0.412c0.092-0.168,0.141-0.4,0.141-0.699v-11.573c0-0.292-0.037-0.525-0.119-0.699
				c-0.081-0.168-0.265-0.303-0.547-0.411l-0.509-0.196v-0.221h10.621l0.135,3.411h-0.221l-0.953-2.084
				c-0.135-0.265-0.276-0.477-0.421-0.639c-0.152-0.163-0.375-0.244-0.667-0.244h-3.989v6.404h2.371c0.292,0,0.52-0.076,0.677-0.233
				c0.151-0.151,0.292-0.363,0.411-0.628l0.439-0.887h0.223v3.989h-0.223l-0.439-0.931c-0.135-0.265-0.276-0.477-0.421-0.635
				c-0.152-0.151-0.375-0.232-0.667-0.232h-2.371v6.896h4.477c0.297,0,0.524-0.075,0.687-0.232c0.163-0.157,0.299-0.373,0.401-0.655
				l0.909-2.085h0.221l-0.135,3.416H259.401z"/>
		</g>
		<g>
			
				<linearGradient id="SVGID_00000161598096701414577170000013911249667386188969_" gradientUnits="userSpaceOnUse" x1="148.6968" y1="321.314" x2="152.7763" y2="317.2345">
				<stop  offset="0" style="stop-color:#D3A53C"/>
				<stop  offset="0.2016" style="stop-color:#F8DF7A"/>
				<stop  offset="0.4162" style="stop-color:#F1D46E"/>
				<stop  offset="0.4297" style="stop-color:#ECCC65"/>
				<stop  offset="0.491" style="stop-color:#D6AD43"/>
				<stop  offset="0.5492" style="stop-color:#C7972B"/>
				<stop  offset="0.6026" style="stop-color:#BD8A1C"/>
				<stop  offset="0.6466" style="stop-color:#BA8517"/>
				<stop  offset="0.6823" style="stop-color:#C6982F"/>
				<stop  offset="0.7499" style="stop-color:#DAB756"/>
				<stop  offset="0.8168" style="stop-color:#E9CF75"/>
				<stop  offset="0.8817" style="stop-color:#F4E18B"/>
				<stop  offset="0.9438" style="stop-color:#FBEB98"/>
				<stop  offset="1" style="stop-color:#FDEF9D"/>
			</linearGradient>
			<path style="fill:url(#SVGID_00000161598096701414577170000013911249667386188969_);" d="M153.04,317.498
				c0.257,0.256,0.387,0.631,0.387,1.121v0.237c0,0.483-0.129,0.856-0.387,1.117c-0.256,0.26-0.631,0.389-1.121,0.389h-1.529v1.817
				c0,0.105-0.028,0.188-0.089,0.245c-0.059,0.063-0.14,0.091-0.245,0.091c-0.105,0-0.187-0.028-0.245-0.091
				c-0.063-0.057-0.089-0.14-0.089-0.245v-4.737c0-0.105,0.027-0.187,0.089-0.245c0.059-0.059,0.14-0.089,0.245-0.089h1.864
				C152.409,317.109,152.784,317.241,153.04,317.498z M152.756,318.62c0-0.3-0.061-0.515-0.191-0.643
				c-0.128-0.132-0.343-0.199-0.647-0.199h-1.529v1.916h1.529c0.304,0,0.519-0.063,0.647-0.192c0.129-0.128,0.191-0.341,0.191-0.645
				V318.62z"/>
			
				<linearGradient id="SVGID_00000168835752077344863390000013699329596991062923_" gradientUnits="userSpaceOnUse" x1="154.5423" y1="321.8837" x2="157.4127" y2="319.0133">
				<stop  offset="0" style="stop-color:#D3A53C"/>
				<stop  offset="0.2016" style="stop-color:#F8DF7A"/>
				<stop  offset="0.4162" style="stop-color:#F1D46E"/>
				<stop  offset="0.4297" style="stop-color:#ECCC65"/>
				<stop  offset="0.491" style="stop-color:#D6AD43"/>
				<stop  offset="0.5492" style="stop-color:#C7972B"/>
				<stop  offset="0.6026" style="stop-color:#BD8A1C"/>
				<stop  offset="0.6466" style="stop-color:#BA8517"/>
				<stop  offset="0.6823" style="stop-color:#C6982F"/>
				<stop  offset="0.7499" style="stop-color:#DAB756"/>
				<stop  offset="0.8168" style="stop-color:#E9CF75"/>
				<stop  offset="0.8817" style="stop-color:#F4E18B"/>
				<stop  offset="0.9438" style="stop-color:#FBEB98"/>
				<stop  offset="1" style="stop-color:#FDEF9D"/>
			</linearGradient>
			<path style="fill:url(#SVGID_00000168835752077344863390000013699329596991062923_);" d="M155.007,322.181v-4.737
				c0-0.223,0.113-0.335,0.335-0.335c0.223,0,0.335,0.112,0.335,0.335v4.403h2.208c0.225,0,0.335,0.113,0.335,0.335
				c0,0.223-0.109,0.336-0.335,0.336h-2.543C155.12,322.517,155.007,322.404,155.007,322.181z"/>
			
				<linearGradient id="SVGID_00000181073472845479768810000005125307600130232969_" gradientUnits="userSpaceOnUse" x1="159.6297" y1="322.7115" x2="163.4699" y2="318.8714">
				<stop  offset="0" style="stop-color:#D3A53C"/>
				<stop  offset="0.2016" style="stop-color:#F8DF7A"/>
				<stop  offset="0.4162" style="stop-color:#F1D46E"/>
				<stop  offset="0.4297" style="stop-color:#ECCC65"/>
				<stop  offset="0.491" style="stop-color:#D6AD43"/>
				<stop  offset="0.5492" style="stop-color:#C7972B"/>
				<stop  offset="0.6026" style="stop-color:#BD8A1C"/>
				<stop  offset="0.6466" style="stop-color:#BA8517"/>
				<stop  offset="0.6823" style="stop-color:#C6982F"/>
				<stop  offset="0.7499" style="stop-color:#DAB756"/>
				<stop  offset="0.8168" style="stop-color:#E9CF75"/>
				<stop  offset="0.8817" style="stop-color:#F4E18B"/>
				<stop  offset="0.9438" style="stop-color:#FBEB98"/>
				<stop  offset="1" style="stop-color:#FDEF9D"/>
			</linearGradient>
			<path style="fill:url(#SVGID_00000181073472845479768810000005125307600130232969_);" d="M163.872,322.205
				c0,0.128-0.071,0.221-0.215,0.28c-0.051,0.02-0.101,0.032-0.159,0.032c-0.129,0-0.223-0.071-0.281-0.215l-0.432-1.048h-2.476
				l-0.416,1.048c-0.059,0.144-0.152,0.215-0.281,0.215c-0.051,0-0.101-0.012-0.151-0.032c-0.148-0.055-0.223-0.148-0.223-0.28
				c0-0.059,0.012-0.113,0.031-0.16l1.9-4.672c0.079-0.175,0.203-0.264,0.375-0.264h0.015c0.176,0.011,0.292,0.101,0.351,0.264
				l1.932,4.672C163.86,322.092,163.872,322.146,163.872,322.205z M160.571,320.585h1.947l-0.997-2.413L160.571,320.585z"/>
			
				<linearGradient id="SVGID_00000020380178538663521430000008948930308706979497_" gradientUnits="userSpaceOnUse" x1="165.3513" y1="321.843" x2="169.4135" y2="317.7808">
				<stop  offset="0" style="stop-color:#D3A53C"/>
				<stop  offset="0.2016" style="stop-color:#F8DF7A"/>
				<stop  offset="0.4162" style="stop-color:#F1D46E"/>
				<stop  offset="0.4297" style="stop-color:#ECCC65"/>
				<stop  offset="0.491" style="stop-color:#D6AD43"/>
				<stop  offset="0.5492" style="stop-color:#C7972B"/>
				<stop  offset="0.6026" style="stop-color:#BD8A1C"/>
				<stop  offset="0.6466" style="stop-color:#BA8517"/>
				<stop  offset="0.6823" style="stop-color:#C6982F"/>
				<stop  offset="0.7499" style="stop-color:#DAB756"/>
				<stop  offset="0.8168" style="stop-color:#E9CF75"/>
				<stop  offset="0.8817" style="stop-color:#F4E18B"/>
				<stop  offset="0.9438" style="stop-color:#FBEB98"/>
				<stop  offset="1" style="stop-color:#FDEF9D"/>
			</linearGradient>
			<path style="fill:url(#SVGID_00000020380178538663521430000008948930308706979497_);" d="M165.589,322.081
				c-0.288-0.289-0.433-0.74-0.433-1.352v-1.833c0-0.611,0.145-1.063,0.433-1.355c0.292-0.292,0.739-0.436,1.347-0.432h0.961
				c0.503,0,0.884,0.105,1.145,0.311c0.264,0.211,0.416,0.533,0.459,0.973c0.016,0.113-0.004,0.199-0.063,0.257
				c-0.057,0.059-0.144,0.085-0.256,0.085c-0.105,0-0.187-0.027-0.241-0.081c-0.059-0.059-0.093-0.14-0.109-0.253
				c-0.027-0.237-0.109-0.401-0.249-0.491c-0.136-0.085-0.365-0.132-0.685-0.132h-0.961c-0.288-0.004-0.515,0.027-0.669,0.097
				c-0.16,0.069-0.273,0.183-0.343,0.343c-0.067,0.16-0.097,0.385-0.097,0.677v1.833c0,0.292,0.035,0.519,0.101,0.673
				c0.069,0.16,0.183,0.273,0.343,0.339c0.155,0.071,0.377,0.105,0.673,0.105h0.953c0.32,0,0.549-0.043,0.685-0.132
				c0.14-0.085,0.223-0.249,0.249-0.491c0.016-0.109,0.051-0.195,0.109-0.249c0.055-0.059,0.136-0.085,0.241-0.085
				c0.112,0,0.199,0.031,0.256,0.089c0.059,0.059,0.079,0.144,0.063,0.253c-0.043,0.444-0.195,0.767-0.459,0.973
				c-0.261,0.207-0.643,0.312-1.145,0.312h-0.953C166.332,322.517,165.881,322.373,165.589,322.081z"/>
			
				<linearGradient id="SVGID_00000109024800508499833110000000866264777169300156_" gradientUnits="userSpaceOnUse" x1="170.9176" y1="321.9587" x2="175.2104" y2="317.6659">
				<stop  offset="0" style="stop-color:#D3A53C"/>
				<stop  offset="0.2016" style="stop-color:#F8DF7A"/>
				<stop  offset="0.4162" style="stop-color:#F1D46E"/>
				<stop  offset="0.4297" style="stop-color:#ECCC65"/>
				<stop  offset="0.491" style="stop-color:#D6AD43"/>
				<stop  offset="0.5492" style="stop-color:#C7972B"/>
				<stop  offset="0.6026" style="stop-color:#BD8A1C"/>
				<stop  offset="0.6466" style="stop-color:#BA8517"/>
				<stop  offset="0.6823" style="stop-color:#C6982F"/>
				<stop  offset="0.7499" style="stop-color:#DAB756"/>
				<stop  offset="0.8168" style="stop-color:#E9CF75"/>
				<stop  offset="0.8817" style="stop-color:#F4E18B"/>
				<stop  offset="0.9438" style="stop-color:#FBEB98"/>
				<stop  offset="1" style="stop-color:#FDEF9D"/>
			</linearGradient>
			<path style="fill:url(#SVGID_00000109024800508499833110000000866264777169300156_);" d="M174.743,321.933
				c0.057,0.061,0.085,0.144,0.085,0.248c0,0.105-0.028,0.188-0.085,0.245c-0.059,0.063-0.141,0.091-0.249,0.091h-2.863
				c-0.104,0-0.187-0.028-0.245-0.091c-0.061-0.057-0.089-0.14-0.089-0.245v-4.737c0-0.105,0.028-0.187,0.089-0.245
				c0.059-0.059,0.141-0.089,0.245-0.089h2.863c0.108,0,0.191,0.031,0.249,0.089c0.057,0.059,0.085,0.14,0.085,0.245
				c0,0.109-0.028,0.191-0.085,0.249c-0.059,0.057-0.141,0.085-0.249,0.085h-2.527v1.677h1.588c0.105,0,0.187,0.028,0.245,0.087
				c0.059,0.057,0.089,0.14,0.089,0.249c0,0.104-0.031,0.187-0.089,0.245c-0.059,0.057-0.14,0.089-0.245,0.089h-1.588v1.72h2.527
				C174.601,321.846,174.684,321.874,174.743,321.933z"/>
			
				<linearGradient id="SVGID_00000098193709364224819340000009494555035764392374_" gradientUnits="userSpaceOnUse" x1="179.099" y1="320.7802" x2="182.9141" y2="316.9651">
				<stop  offset="0" style="stop-color:#D3A53C"/>
				<stop  offset="0.2016" style="stop-color:#F8DF7A"/>
				<stop  offset="0.4162" style="stop-color:#F1D46E"/>
				<stop  offset="0.4297" style="stop-color:#ECCC65"/>
				<stop  offset="0.491" style="stop-color:#D6AD43"/>
				<stop  offset="0.5492" style="stop-color:#C7972B"/>
				<stop  offset="0.6026" style="stop-color:#BD8A1C"/>
				<stop  offset="0.6466" style="stop-color:#BA8517"/>
				<stop  offset="0.6823" style="stop-color:#C6982F"/>
				<stop  offset="0.7499" style="stop-color:#DAB756"/>
				<stop  offset="0.8168" style="stop-color:#E9CF75"/>
				<stop  offset="0.8817" style="stop-color:#F4E18B"/>
				<stop  offset="0.9438" style="stop-color:#FBEB98"/>
				<stop  offset="1" style="stop-color:#FDEF9D"/>
			</linearGradient>
			<path style="fill:url(#SVGID_00000098193709364224819340000009494555035764392374_);" d="M183.296,317.456
				c0,0.061-0.024,0.124-0.071,0.191l-1.896,2.908v1.627c0,0.105-0.031,0.188-0.089,0.245c-0.059,0.063-0.14,0.091-0.245,0.091
				c-0.109,0-0.191-0.028-0.249-0.091c-0.059-0.057-0.085-0.14-0.085-0.245v-1.627l-1.827-2.908
				c-0.043-0.075-0.065-0.14-0.065-0.203c0-0.109,0.055-0.199,0.167-0.269c0.075-0.043,0.14-0.065,0.199-0.065
				c0.101,0,0.191,0.057,0.265,0.167l1.596,2.563l1.675-2.563c0.061-0.105,0.148-0.156,0.252-0.156c0.067,0,0.133,0.024,0.199,0.071
				C183.237,317.264,183.296,317.354,183.296,317.456z"/>
			
				<linearGradient id="SVGID_00000111892197892726713370000000734478699700871557_" gradientUnits="userSpaceOnUse" x1="184.528" y1="321.8609" x2="188.626" y2="317.7629">
				<stop  offset="0" style="stop-color:#D3A53C"/>
				<stop  offset="0.2016" style="stop-color:#F8DF7A"/>
				<stop  offset="0.4162" style="stop-color:#F1D46E"/>
				<stop  offset="0.4297" style="stop-color:#ECCC65"/>
				<stop  offset="0.491" style="stop-color:#D6AD43"/>
				<stop  offset="0.5492" style="stop-color:#C7972B"/>
				<stop  offset="0.6026" style="stop-color:#BD8A1C"/>
				<stop  offset="0.6466" style="stop-color:#BA8517"/>
				<stop  offset="0.6823" style="stop-color:#C6982F"/>
				<stop  offset="0.7499" style="stop-color:#DAB756"/>
				<stop  offset="0.8168" style="stop-color:#E9CF75"/>
				<stop  offset="0.8817" style="stop-color:#F4E18B"/>
				<stop  offset="0.9438" style="stop-color:#FBEB98"/>
				<stop  offset="1" style="stop-color:#FDEF9D"/>
			</linearGradient>
			<path style="fill:url(#SVGID_00000111892197892726713370000000734478699700871557_);" d="M184.748,322.081
				c-0.288-0.289-0.432-0.74-0.432-1.352v-1.841c0-0.611,0.144-1.063,0.436-1.351c0.296-0.288,0.744-0.432,1.351-0.428h0.953
				c0.612,0,1.064,0.148,1.352,0.436c0.292,0.292,0.436,0.74,0.436,1.351v1.833c0,0.612-0.144,1.063-0.436,1.352
				c-0.288,0.292-0.74,0.436-1.352,0.436h-0.953C185.492,322.517,185.04,322.373,184.748,322.081z M187.056,321.846
				c0.292,0,0.519-0.035,0.675-0.105c0.159-0.065,0.272-0.179,0.339-0.339c0.069-0.155,0.105-0.381,0.105-0.673v-1.833
				c0-0.288-0.036-0.511-0.105-0.669c-0.067-0.16-0.184-0.273-0.343-0.343c-0.16-0.071-0.381-0.105-0.671-0.105h-0.953
				c-0.288-0.004-0.509,0.027-0.669,0.097c-0.16,0.069-0.276,0.183-0.347,0.343c-0.067,0.16-0.101,0.381-0.101,0.669v1.841
				c0,0.292,0.035,0.519,0.101,0.673c0.071,0.16,0.183,0.273,0.343,0.339c0.156,0.071,0.377,0.105,0.673,0.105H187.056z"/>
			
				<linearGradient id="SVGID_00000145018261081106589620000014505271285253569180_" gradientUnits="userSpaceOnUse" x1="190.6724" y1="321.6866" x2="195.1223" y2="317.2367">
				<stop  offset="0" style="stop-color:#D3A53C"/>
				<stop  offset="0.2016" style="stop-color:#F8DF7A"/>
				<stop  offset="0.4162" style="stop-color:#F1D46E"/>
				<stop  offset="0.4297" style="stop-color:#ECCC65"/>
				<stop  offset="0.491" style="stop-color:#D6AD43"/>
				<stop  offset="0.5492" style="stop-color:#C7972B"/>
				<stop  offset="0.6026" style="stop-color:#BD8A1C"/>
				<stop  offset="0.6466" style="stop-color:#BA8517"/>
				<stop  offset="0.6823" style="stop-color:#C6982F"/>
				<stop  offset="0.7499" style="stop-color:#DAB756"/>
				<stop  offset="0.8168" style="stop-color:#E9CF75"/>
				<stop  offset="0.8817" style="stop-color:#F4E18B"/>
				<stop  offset="0.9438" style="stop-color:#FBEB98"/>
				<stop  offset="1" style="stop-color:#FDEF9D"/>
			</linearGradient>
			<path style="fill:url(#SVGID_00000145018261081106589620000014505271285253569180_);" d="M191.067,322.081
				c-0.288-0.289-0.432-0.74-0.432-1.352v-3.285c0-0.223,0.109-0.335,0.335-0.335c0.223,0,0.335,0.112,0.335,0.335v3.285
				c0,0.292,0.032,0.519,0.101,0.673c0.071,0.16,0.183,0.273,0.339,0.339c0.156,0.071,0.381,0.105,0.673,0.105h0.959
				c0.292,0,0.517-0.035,0.673-0.105c0.156-0.065,0.268-0.179,0.339-0.339c0.069-0.155,0.105-0.381,0.105-0.673v-3.285
				c0-0.223,0.108-0.335,0.335-0.335c0.221,0,0.335,0.112,0.335,0.335v3.285c0,0.612-0.144,1.063-0.436,1.352
				c-0.288,0.292-0.74,0.436-1.351,0.436h-0.959C191.807,322.517,191.359,322.373,191.067,322.081z"/>
			
				<linearGradient id="SVGID_00000110459263108015753860000000820424387663079310_" gradientUnits="userSpaceOnUse" x1="196.7976" y1="321.9975" x2="200.8771" y2="317.918">
				<stop  offset="0" style="stop-color:#D3A53C"/>
				<stop  offset="0.2016" style="stop-color:#F8DF7A"/>
				<stop  offset="0.4162" style="stop-color:#F1D46E"/>
				<stop  offset="0.4297" style="stop-color:#ECCC65"/>
				<stop  offset="0.491" style="stop-color:#D6AD43"/>
				<stop  offset="0.5492" style="stop-color:#C7972B"/>
				<stop  offset="0.6026" style="stop-color:#BD8A1C"/>
				<stop  offset="0.6466" style="stop-color:#BA8517"/>
				<stop  offset="0.6823" style="stop-color:#C6982F"/>
				<stop  offset="0.7499" style="stop-color:#DAB756"/>
				<stop  offset="0.8168" style="stop-color:#E9CF75"/>
				<stop  offset="0.8817" style="stop-color:#F4E18B"/>
				<stop  offset="0.9438" style="stop-color:#FBEB98"/>
				<stop  offset="1" style="stop-color:#FDEF9D"/>
			</linearGradient>
			<path style="fill:url(#SVGID_00000110459263108015753860000000820424387663079310_);" d="M200.551,319.869
				c-0.199,0.257-0.483,0.412-0.856,0.471l1.047,1.737c0.032,0.053,0.047,0.112,0.047,0.175c0,0.117-0.057,0.211-0.175,0.28
				c-0.071,0.043-0.132,0.063-0.183,0.063c-0.109,0-0.199-0.059-0.273-0.175l-1.211-2.017l-0.023-0.039h-1.117v1.817
				c0,0.105-0.028,0.188-0.091,0.245c-0.057,0.063-0.14,0.091-0.245,0.091c-0.104,0-0.187-0.028-0.244-0.091
				c-0.063-0.057-0.091-0.14-0.091-0.245v-4.737c0-0.105,0.028-0.187,0.091-0.245c0.057-0.059,0.14-0.089,0.244-0.089h1.865
				c0.491,0,0.864,0.132,1.121,0.389c0.257,0.256,0.385,0.631,0.385,1.121v0.237C200.843,319.277,200.745,319.616,200.551,319.869z
				 M200.173,318.62c0-0.3-0.063-0.515-0.191-0.643c-0.128-0.132-0.343-0.199-0.647-0.199h-1.529v1.916h1.529
				c0.304,0,0.519-0.063,0.647-0.192c0.128-0.128,0.191-0.341,0.191-0.645V318.62z"/>
			
				<linearGradient id="SVGID_00000039855704094071320810000009179977795553293209_" gradientUnits="userSpaceOnUse" x1="205.1337" y1="320.7771" x2="208.9402" y2="316.9706">
				<stop  offset="0" style="stop-color:#D3A53C"/>
				<stop  offset="0.2016" style="stop-color:#F8DF7A"/>
				<stop  offset="0.4162" style="stop-color:#F1D46E"/>
				<stop  offset="0.4297" style="stop-color:#ECCC65"/>
				<stop  offset="0.491" style="stop-color:#D6AD43"/>
				<stop  offset="0.5492" style="stop-color:#C7972B"/>
				<stop  offset="0.6026" style="stop-color:#BD8A1C"/>
				<stop  offset="0.6466" style="stop-color:#BA8517"/>
				<stop  offset="0.6823" style="stop-color:#C6982F"/>
				<stop  offset="0.7499" style="stop-color:#DAB756"/>
				<stop  offset="0.8168" style="stop-color:#E9CF75"/>
				<stop  offset="0.8817" style="stop-color:#F4E18B"/>
				<stop  offset="0.9438" style="stop-color:#FBEB98"/>
				<stop  offset="1" style="stop-color:#FDEF9D"/>
			</linearGradient>
			<path style="fill:url(#SVGID_00000039855704094071320810000009179977795553293209_);" d="M206.707,322.181v-4.391h-1.549
				c-0.223,0-0.336-0.113-0.336-0.335c0-0.227,0.113-0.336,0.336-0.336h3.764c0.223,0,0.335,0.109,0.335,0.336
				c0,0.221-0.112,0.335-0.335,0.335h-1.545v4.391c0,0.105-0.031,0.188-0.089,0.245c-0.059,0.063-0.14,0.091-0.245,0.091
				C206.815,322.517,206.707,322.404,206.707,322.181z"/>
			
				<linearGradient id="SVGID_00000068668733933630269170000007941227799010100907_" gradientUnits="userSpaceOnUse" x1="210.3376" y1="321.9587" x2="214.6304" y2="317.6659">
				<stop  offset="0" style="stop-color:#D3A53C"/>
				<stop  offset="0.2016" style="stop-color:#F8DF7A"/>
				<stop  offset="0.4162" style="stop-color:#F1D46E"/>
				<stop  offset="0.4297" style="stop-color:#ECCC65"/>
				<stop  offset="0.491" style="stop-color:#D6AD43"/>
				<stop  offset="0.5492" style="stop-color:#C7972B"/>
				<stop  offset="0.6026" style="stop-color:#BD8A1C"/>
				<stop  offset="0.6466" style="stop-color:#BA8517"/>
				<stop  offset="0.6823" style="stop-color:#C6982F"/>
				<stop  offset="0.7499" style="stop-color:#DAB756"/>
				<stop  offset="0.8168" style="stop-color:#E9CF75"/>
				<stop  offset="0.8817" style="stop-color:#F4E18B"/>
				<stop  offset="0.9438" style="stop-color:#FBEB98"/>
				<stop  offset="1" style="stop-color:#FDEF9D"/>
			</linearGradient>
			<path style="fill:url(#SVGID_00000068668733933630269170000007941227799010100907_);" d="M214.163,321.933
				c0.057,0.061,0.085,0.144,0.085,0.248c0,0.105-0.028,0.188-0.085,0.245c-0.059,0.063-0.141,0.091-0.249,0.091h-2.863
				c-0.104,0-0.187-0.028-0.245-0.091c-0.061-0.057-0.089-0.14-0.089-0.245v-4.737c0-0.105,0.028-0.187,0.089-0.245
				c0.059-0.059,0.141-0.089,0.245-0.089h2.863c0.108,0,0.191,0.031,0.249,0.089c0.057,0.059,0.085,0.14,0.085,0.245
				c0,0.109-0.028,0.191-0.085,0.249c-0.059,0.057-0.141,0.085-0.249,0.085h-2.527v1.677h1.588c0.105,0,0.187,0.028,0.245,0.087
				c0.059,0.057,0.089,0.14,0.089,0.249c0,0.104-0.031,0.187-0.089,0.245c-0.059,0.057-0.14,0.089-0.245,0.089h-1.588v1.72h2.527
				C214.021,321.846,214.104,321.874,214.163,321.933z"/>
			
				<linearGradient id="SVGID_00000052104867315810471670000007427217613156483223_" gradientUnits="userSpaceOnUse" x1="215.3494" y1="322.0291" x2="219.843" y2="317.5356">
				<stop  offset="0" style="stop-color:#D3A53C"/>
				<stop  offset="0.2016" style="stop-color:#F8DF7A"/>
				<stop  offset="0.4162" style="stop-color:#F1D46E"/>
				<stop  offset="0.4297" style="stop-color:#ECCC65"/>
				<stop  offset="0.491" style="stop-color:#D6AD43"/>
				<stop  offset="0.5492" style="stop-color:#C7972B"/>
				<stop  offset="0.6026" style="stop-color:#BD8A1C"/>
				<stop  offset="0.6466" style="stop-color:#BA8517"/>
				<stop  offset="0.6823" style="stop-color:#C6982F"/>
				<stop  offset="0.7499" style="stop-color:#DAB756"/>
				<stop  offset="0.8168" style="stop-color:#E9CF75"/>
				<stop  offset="0.8817" style="stop-color:#F4E18B"/>
				<stop  offset="0.9438" style="stop-color:#FBEB98"/>
				<stop  offset="1" style="stop-color:#FDEF9D"/>
			</linearGradient>
			<path style="fill:url(#SVGID_00000052104867315810471670000007427217613156483223_);" d="M215.625,322.189
				c0-0.073,0.024-0.148,0.075-0.213l1.456-2.153l-1.537-2.169c-0.047-0.073-0.071-0.14-0.071-0.197c0-0.101,0.051-0.195,0.16-0.273
				c0.073-0.047,0.144-0.073,0.207-0.073c0.097,0,0.179,0.055,0.252,0.159l1.429,2.001l1.436-2.001
				c0.079-0.104,0.164-0.159,0.253-0.159c0.067,0,0.133,0.031,0.207,0.089c0.109,0.073,0.16,0.16,0.16,0.257
				c0,0.065-0.024,0.136-0.079,0.205l-1.568,2.184l1.507,2.123c0.047,0.065,0.069,0.136,0.069,0.207c0,0.104-0.055,0.195-0.16,0.272
				c-0.069,0.047-0.136,0.071-0.205,0.071c-0.097,0-0.184-0.055-0.257-0.16l-1.387-1.955l-1.323,1.963
				c-0.071,0.101-0.156,0.152-0.257,0.152c-0.063,0-0.132-0.024-0.215-0.071C215.676,322.376,215.625,322.29,215.625,322.189z"/>
			
				<linearGradient id="SVGID_00000005974780635987044640000008353193317001163923_" gradientUnits="userSpaceOnUse" x1="221.0262" y1="320.7771" x2="224.8329" y2="316.9705">
				<stop  offset="0" style="stop-color:#D3A53C"/>
				<stop  offset="0.2016" style="stop-color:#F8DF7A"/>
				<stop  offset="0.4162" style="stop-color:#F1D46E"/>
				<stop  offset="0.4297" style="stop-color:#ECCC65"/>
				<stop  offset="0.491" style="stop-color:#D6AD43"/>
				<stop  offset="0.5492" style="stop-color:#C7972B"/>
				<stop  offset="0.6026" style="stop-color:#BD8A1C"/>
				<stop  offset="0.6466" style="stop-color:#BA8517"/>
				<stop  offset="0.6823" style="stop-color:#C6982F"/>
				<stop  offset="0.7499" style="stop-color:#DAB756"/>
				<stop  offset="0.8168" style="stop-color:#E9CF75"/>
				<stop  offset="0.8817" style="stop-color:#F4E18B"/>
				<stop  offset="0.9438" style="stop-color:#FBEB98"/>
				<stop  offset="1" style="stop-color:#FDEF9D"/>
			</linearGradient>
			<path style="fill:url(#SVGID_00000005974780635987044640000008353193317001163923_);" d="M222.599,322.181v-4.391h-1.549
				c-0.221,0-0.335-0.113-0.335-0.335c0-0.227,0.113-0.336,0.335-0.336h3.765c0.221,0,0.335,0.109,0.335,0.336
				c0,0.221-0.113,0.335-0.335,0.335h-1.547v4.391c0,0.105-0.031,0.188-0.089,0.245c-0.059,0.063-0.14,0.091-0.245,0.091
				C222.708,322.517,222.599,322.404,222.599,322.181z"/>
			
				<linearGradient id="SVGID_00000176735593027507296340000003984355249809077635_" gradientUnits="userSpaceOnUse" x1="229.4111" y1="322.2083" x2="234.206" y2="317.4135">
				<stop  offset="0" style="stop-color:#D3A53C"/>
				<stop  offset="0.2016" style="stop-color:#F8DF7A"/>
				<stop  offset="0.4162" style="stop-color:#F1D46E"/>
				<stop  offset="0.4297" style="stop-color:#ECCC65"/>
				<stop  offset="0.491" style="stop-color:#D6AD43"/>
				<stop  offset="0.5492" style="stop-color:#C7972B"/>
				<stop  offset="0.6026" style="stop-color:#BD8A1C"/>
				<stop  offset="0.6466" style="stop-color:#BA8517"/>
				<stop  offset="0.6823" style="stop-color:#C6982F"/>
				<stop  offset="0.7499" style="stop-color:#DAB756"/>
				<stop  offset="0.8168" style="stop-color:#E9CF75"/>
				<stop  offset="0.8817" style="stop-color:#F4E18B"/>
				<stop  offset="0.9438" style="stop-color:#FBEB98"/>
				<stop  offset="1" style="stop-color:#FDEF9D"/>
			</linearGradient>
			<path style="fill:url(#SVGID_00000176735593027507296340000003984355249809077635_);" d="M229.615,322.412
				c-0.071-0.067-0.105-0.144-0.105-0.231v-4.737c0-0.089,0.035-0.168,0.105-0.233c0.067-0.067,0.144-0.101,0.229-0.101
				c0.089,0,0.168,0.035,0.233,0.101c0.067,0.065,0.101,0.144,0.101,0.233v2.005h3.256v-2.005c0-0.089,0.031-0.168,0.097-0.233
				c0.065-0.067,0.144-0.101,0.237-0.101c0.089,0,0.167,0.035,0.233,0.101c0.065,0.065,0.101,0.144,0.101,0.233v4.737
				c0,0.087-0.036,0.164-0.101,0.231c-0.067,0.069-0.144,0.105-0.233,0.105c-0.093,0-0.172-0.036-0.237-0.101
				c-0.067-0.067-0.097-0.144-0.097-0.235v-2.063h-3.256v2.063c0,0.087-0.035,0.164-0.101,0.231
				c-0.065,0.069-0.144,0.105-0.233,0.105C229.759,322.517,229.681,322.481,229.615,322.412z"/>
			
				<linearGradient id="SVGID_00000114048466424818734120000014765629744941361320_" gradientUnits="userSpaceOnUse" x1="235.7811" y1="321.9584" x2="240.0733" y2="317.6662">
				<stop  offset="0" style="stop-color:#D3A53C"/>
				<stop  offset="0.2016" style="stop-color:#F8DF7A"/>
				<stop  offset="0.4162" style="stop-color:#F1D46E"/>
				<stop  offset="0.4297" style="stop-color:#ECCC65"/>
				<stop  offset="0.491" style="stop-color:#D6AD43"/>
				<stop  offset="0.5492" style="stop-color:#C7972B"/>
				<stop  offset="0.6026" style="stop-color:#BD8A1C"/>
				<stop  offset="0.6466" style="stop-color:#BA8517"/>
				<stop  offset="0.6823" style="stop-color:#C6982F"/>
				<stop  offset="0.7499" style="stop-color:#DAB756"/>
				<stop  offset="0.8168" style="stop-color:#E9CF75"/>
				<stop  offset="0.8817" style="stop-color:#F4E18B"/>
				<stop  offset="0.9438" style="stop-color:#FBEB98"/>
				<stop  offset="1" style="stop-color:#FDEF9D"/>
			</linearGradient>
			<path style="fill:url(#SVGID_00000114048466424818734120000014765629744941361320_);" d="M239.605,321.933
				c0.059,0.061,0.085,0.144,0.085,0.248c0,0.105-0.027,0.188-0.085,0.245c-0.059,0.063-0.14,0.091-0.249,0.091h-2.861
				c-0.105,0-0.188-0.028-0.245-0.091c-0.063-0.057-0.089-0.14-0.089-0.245v-4.737c0-0.105,0.027-0.187,0.089-0.245
				c0.057-0.059,0.14-0.089,0.245-0.089h2.861c0.109,0,0.191,0.031,0.249,0.089c0.059,0.059,0.085,0.14,0.085,0.245
				c0,0.109-0.027,0.191-0.085,0.249c-0.059,0.057-0.14,0.085-0.249,0.085h-2.527v1.677h1.588c0.105,0,0.187,0.028,0.245,0.087
				c0.059,0.057,0.089,0.14,0.089,0.249c0,0.104-0.031,0.187-0.089,0.245c-0.059,0.057-0.14,0.089-0.245,0.089h-1.588v1.72h2.527
				C239.465,321.846,239.547,321.874,239.605,321.933z"/>
			
				<linearGradient id="SVGID_00000111906367059855239060000014825818663330507177_" gradientUnits="userSpaceOnUse" x1="241.0296" y1="321.9975" x2="245.1091" y2="317.918">
				<stop  offset="0" style="stop-color:#D3A53C"/>
				<stop  offset="0.2016" style="stop-color:#F8DF7A"/>
				<stop  offset="0.4162" style="stop-color:#F1D46E"/>
				<stop  offset="0.4297" style="stop-color:#ECCC65"/>
				<stop  offset="0.491" style="stop-color:#D6AD43"/>
				<stop  offset="0.5492" style="stop-color:#C7972B"/>
				<stop  offset="0.6026" style="stop-color:#BD8A1C"/>
				<stop  offset="0.6466" style="stop-color:#BA8517"/>
				<stop  offset="0.6823" style="stop-color:#C6982F"/>
				<stop  offset="0.7499" style="stop-color:#DAB756"/>
				<stop  offset="0.8168" style="stop-color:#E9CF75"/>
				<stop  offset="0.8817" style="stop-color:#F4E18B"/>
				<stop  offset="0.9438" style="stop-color:#FBEB98"/>
				<stop  offset="1" style="stop-color:#FDEF9D"/>
			</linearGradient>
			<path style="fill:url(#SVGID_00000111906367059855239060000014825818663330507177_);" d="M244.783,319.869
				c-0.199,0.257-0.483,0.412-0.856,0.471l1.047,1.737c0.032,0.053,0.047,0.112,0.047,0.175c0,0.117-0.057,0.211-0.175,0.28
				c-0.071,0.043-0.132,0.063-0.183,0.063c-0.109,0-0.199-0.059-0.273-0.175l-1.211-2.017l-0.023-0.039h-1.117v1.817
				c0,0.105-0.028,0.188-0.089,0.245c-0.059,0.063-0.141,0.091-0.245,0.091c-0.105,0-0.188-0.028-0.245-0.091
				c-0.063-0.057-0.091-0.14-0.091-0.245v-4.737c0-0.105,0.028-0.187,0.091-0.245c0.057-0.059,0.14-0.089,0.245-0.089h1.864
				c0.491,0,0.865,0.132,1.121,0.389c0.257,0.256,0.385,0.631,0.385,1.121v0.237C245.075,319.277,244.977,319.616,244.783,319.869z
				 M244.405,318.62c0-0.3-0.063-0.515-0.191-0.643c-0.128-0.132-0.343-0.199-0.647-0.199h-1.529v1.916h1.529
				c0.304,0,0.519-0.063,0.647-0.192c0.128-0.128,0.191-0.341,0.191-0.645V318.62z"/>
			
				<linearGradient id="SVGID_00000135684649153458051730000011056537738166058140_" gradientUnits="userSpaceOnUse" x1="246.3705" y1="321.9584" x2="250.6627" y2="317.6662">
				<stop  offset="0" style="stop-color:#D3A53C"/>
				<stop  offset="0.2016" style="stop-color:#F8DF7A"/>
				<stop  offset="0.4162" style="stop-color:#F1D46E"/>
				<stop  offset="0.4297" style="stop-color:#ECCC65"/>
				<stop  offset="0.491" style="stop-color:#D6AD43"/>
				<stop  offset="0.5492" style="stop-color:#C7972B"/>
				<stop  offset="0.6026" style="stop-color:#BD8A1C"/>
				<stop  offset="0.6466" style="stop-color:#BA8517"/>
				<stop  offset="0.6823" style="stop-color:#C6982F"/>
				<stop  offset="0.7499" style="stop-color:#DAB756"/>
				<stop  offset="0.8168" style="stop-color:#E9CF75"/>
				<stop  offset="0.8817" style="stop-color:#F4E18B"/>
				<stop  offset="0.9438" style="stop-color:#FBEB98"/>
				<stop  offset="1" style="stop-color:#FDEF9D"/>
			</linearGradient>
			<path style="fill:url(#SVGID_00000135684649153458051730000011056537738166058140_);" d="M250.195,321.933
				c0.059,0.061,0.085,0.144,0.085,0.248c0,0.105-0.027,0.188-0.085,0.245c-0.059,0.063-0.14,0.091-0.249,0.091h-2.861
				c-0.105,0-0.187-0.028-0.245-0.091c-0.063-0.057-0.089-0.14-0.089-0.245v-4.737c0-0.105,0.027-0.187,0.089-0.245
				c0.059-0.059,0.14-0.089,0.245-0.089h2.861c0.109,0,0.191,0.031,0.249,0.089c0.059,0.059,0.085,0.14,0.085,0.245
				c0,0.109-0.027,0.191-0.085,0.249c-0.059,0.057-0.14,0.085-0.249,0.085h-2.527v1.677h1.589c0.104,0,0.187,0.028,0.244,0.087
				c0.059,0.057,0.091,0.14,0.091,0.249c0,0.104-0.032,0.187-0.091,0.245c-0.057,0.057-0.14,0.089-0.244,0.089h-1.589v1.72h2.527
				C250.055,321.846,250.136,321.874,250.195,321.933z"/>
		</g>
	</g>
	<g>
		<g>
			<g>
				
					<linearGradient id="SVGID_00000005227053444661711910000012408213242399869614_" gradientUnits="userSpaceOnUse" x1="140.3763" y1="238.3888" x2="259.6226" y2="119.1426">
					<stop  offset="0" style="stop-color:#D3A53C"/>
					<stop  offset="0.2016" style="stop-color:#F8DF7A"/>
					<stop  offset="0.4162" style="stop-color:#F1D46E"/>
					<stop  offset="0.4297" style="stop-color:#ECCC65"/>
					<stop  offset="0.491" style="stop-color:#D6AD43"/>
					<stop  offset="0.5492" style="stop-color:#C7972B"/>
					<stop  offset="0.6026" style="stop-color:#BD8A1C"/>
					<stop  offset="0.6466" style="stop-color:#BA8517"/>
					<stop  offset="0.6823" style="stop-color:#C6982F"/>
					<stop  offset="0.7499" style="stop-color:#DAB756"/>
					<stop  offset="0.8168" style="stop-color:#E9CF75"/>
					<stop  offset="0.8817" style="stop-color:#F4E18B"/>
					<stop  offset="0.9438" style="stop-color:#FBEB98"/>
					<stop  offset="1" style="stop-color:#FDEF9D"/>
				</linearGradient>
				<path style="fill:url(#SVGID_00000005227053444661711910000012408213242399869614_);" d="M284.315,178.765
					c0.041-1.536-0.154-3.089-0.616-4.588c-1.989-6.471-6.611-10.446-12.095-13.338c4.639-3.734,7.055-9.348,8.494-15.251
					c-5.194-3.157-10.871-5.419-16.792-4.781c1.833-5.921,2.291-12.001-0.878-17.983c-0.735-1.386-1.694-2.621-2.81-3.679
					c-1.057-1.117-2.293-2.076-3.679-2.81c-5.983-3.168-12.062-2.71-17.983-0.877c0.638-5.921-1.623-11.598-4.779-16.792
					c-5.905,1.44-11.518,3.857-15.252,8.494c-2.892-5.484-6.868-10.105-13.338-12.095c-1.499-0.462-3.052-0.655-4.588-0.616
					c-1.537-0.039-3.089,0.154-4.588,0.616c-6.471,1.99-10.446,6.611-13.338,12.095c-3.734-4.638-9.348-7.055-15.252-8.494
					c-3.157,5.194-5.418,10.871-4.779,16.792c-5.922-1.833-12.001-2.291-17.984,0.877c-1.386,0.735-2.62,1.694-3.679,2.81
					c-1.116,1.057-2.075,2.293-2.809,3.679c-3.169,5.983-2.711,12.062-0.879,17.983c-5.92-0.638-11.598,1.623-16.79,4.781
					c1.439,5.903,3.855,11.516,8.493,15.251c-5.483,2.892-10.105,6.867-12.095,13.338c-0.461,1.499-0.655,3.052-0.615,4.588
					c-0.041,1.538,0.154,3.089,0.615,4.588c1.99,6.472,6.612,10.448,12.095,13.34c-4.638,3.732-7.054,9.348-8.493,15.251
					c5.192,3.157,10.87,5.419,16.79,4.779c-1.832,5.923-2.29,12.002,0.879,17.985c0.734,1.386,1.693,2.621,2.809,3.679
					c1.058,1.115,2.293,2.076,3.679,2.809c5.983,3.17,12.062,2.712,17.984,0.879c-0.64,5.921,1.622,11.598,4.779,16.79
					c5.904-1.439,11.518-3.855,15.252-8.492c2.892,5.482,6.867,10.105,13.338,12.095c1.499,0.46,3.051,0.655,4.588,0.614
					c1.537,0.041,3.089-0.154,4.588-0.614c6.47-1.991,10.446-6.613,13.338-12.095c3.734,4.638,9.348,7.053,15.252,8.492
					c3.156-5.192,5.417-10.869,4.779-16.79c5.921,1.833,12.001,2.291,17.983-0.879c1.386-0.733,2.621-1.694,3.679-2.809
					c1.117-1.057,2.076-2.293,2.81-3.679c3.169-5.983,2.71-12.062,0.878-17.985c5.921,0.64,11.598-1.621,16.792-4.779
					c-1.44-5.903-3.855-11.518-8.494-15.251c5.484-2.892,10.106-6.867,12.095-13.34
					C284.161,181.854,284.356,180.303,284.315,178.765z M273.398,148.362c-1.529,4.044-3.937,7.563-8.021,9.691
					c-1.556-0.607-3.128-1.174-4.684-1.725c0.451-1.004,0.903-2.098,1.334-3.256c-1.122-0.512-2.217-0.966-3.245-1.358
					c0.711-1.488,1.419-3.001,2.093-4.532C265.267,145.798,269.458,146.585,273.398,148.362z M273.398,209.168
					c-3.94,1.779-8.131,2.566-12.524,1.18c-0.673-1.529-1.382-3.042-2.093-4.532c1.028-0.391,2.122-0.844,3.245-1.358
					c-0.43-1.156-0.883-2.25-1.334-3.254c1.556-0.551,3.128-1.12,4.684-1.725C269.462,201.605,271.87,205.125,273.398,209.168z
					 M230.403,252.165c-4.044-1.529-7.563-3.937-9.691-8.021c0.607-1.558,1.174-3.13,1.725-4.684
					c1.004,0.449,2.098,0.903,3.256,1.334c0.512-1.122,0.967-2.217,1.358-3.244c1.488,0.71,3.002,1.419,4.532,2.092
					C232.967,244.034,232.18,248.224,230.403,252.165z M169.597,252.165c-1.777-3.94-2.564-8.131-1.179-12.524
					c1.529-0.673,3.043-1.382,4.532-2.092c0.391,1.028,0.845,2.122,1.358,3.244c1.157-0.43,2.251-0.885,3.255-1.334
					c0.55,1.554,1.119,3.126,1.725,4.684C177.16,248.228,173.64,250.636,169.597,252.165z M126.601,209.168
					c1.529-4.042,3.937-7.563,8.022-9.689c1.557,0.605,3.128,1.174,4.684,1.725c-0.45,1.004-0.904,2.098-1.335,3.254
					c1.123,0.514,2.217,0.967,3.245,1.358c-0.711,1.49-1.42,3.003-2.093,4.532C134.732,211.733,130.541,210.947,126.601,209.168z
					 M126.601,148.362c3.94-1.777,8.132-2.564,12.524-1.18c0.673,1.53,1.382,3.044,2.093,4.532
					c-1.028,0.392-2.122,0.846-3.245,1.358c0.431,1.158,0.884,2.252,1.335,3.256c-1.556,0.551-3.127,1.119-4.684,1.725
					C130.537,155.925,128.13,152.406,126.601,148.362z M169.597,105.367c4.043,1.529,7.563,3.937,9.69,8.021
					c-0.605,1.556-1.175,3.128-1.725,4.684c-1.004-0.451-2.098-0.903-3.255-1.334c-0.513,1.122-0.967,2.217-1.358,3.244
					c-1.489-0.711-3.003-1.419-4.532-2.092C167.032,113.498,167.819,109.307,169.597,105.367z M230.403,105.367
					c1.777,3.94,2.564,8.131,1.18,12.524c-1.53,0.673-3.044,1.382-4.532,2.092c-0.391-1.028-0.846-2.122-1.358-3.244
					c-1.158,0.43-2.252,0.883-3.256,1.334c-0.551-1.556-1.119-3.128-1.725-4.684C222.84,109.303,226.359,106.896,230.403,105.367z
					 M249.789,158.142c0.892,0.425,1.788,0.822,2.681,1.191c-1.725,2.679-3.638,5.252-5.513,7.93
					c-2.38,3.397-4.563,7.357-5.439,11.501c0.876,4.146,3.059,8.107,5.439,11.503c1.875,2.677,3.788,5.252,5.513,7.93
					c-0.892,0.369-1.788,0.766-2.681,1.191c0.33,0.929,0.685,1.844,1.054,2.736c-3.115,0.675-6.287,1.143-9.505,1.709
					c-4.085,0.72-8.431,1.976-11.98,4.289c-2.311,3.549-3.569,7.893-4.289,11.978c-0.566,3.22-1.033,6.393-1.707,9.507
					c-0.892-0.371-1.807-0.723-2.738-1.054c-0.425,0.89-0.822,1.788-1.191,2.681c-2.679-1.725-5.252-3.638-7.93-5.515
					c-3.397-2.38-7.357-4.563-11.502-5.437c-4.145,0.874-8.106,3.057-11.503,5.437c-2.678,1.877-5.251,3.79-7.93,5.515
					c-0.37-0.892-0.766-1.79-1.191-2.681c-0.931,0.33-1.845,0.683-2.737,1.054c-0.675-3.115-1.142-6.287-1.708-9.507
					c-0.719-4.085-1.976-8.429-4.289-11.978c-3.549-2.313-7.894-3.569-11.979-4.289c-3.22-0.566-6.392-1.033-9.506-1.709
					c0.369-0.892,0.723-1.807,1.053-2.736c-0.892-0.425-1.788-0.822-2.68-1.191c1.725-2.679,3.638-5.254,5.514-7.93
					c2.38-3.397,4.564-7.357,5.438-11.503c-0.874-4.144-3.058-8.105-5.438-11.501c-1.876-2.679-3.789-5.252-5.514-7.93
					c0.892-0.369,1.789-0.766,2.68-1.191c-0.33-0.931-0.684-1.846-1.053-2.736c3.114-0.675,6.286-1.143,9.506-1.708
					c4.085-0.72,8.43-1.976,11.979-4.289c2.313-3.549,3.57-7.893,4.289-11.978c0.567-3.22,1.034-6.393,1.708-9.507
					c0.892,0.369,1.807,0.724,2.737,1.054c0.425-0.892,0.821-1.788,1.191-2.681c2.679,1.725,5.252,3.638,7.93,5.513
					c3.397,2.38,7.358,4.565,11.503,5.439c4.145-0.874,8.105-3.059,11.502-5.439c2.679-1.876,5.252-3.788,7.93-5.513
					c0.369,0.892,0.766,1.788,1.191,2.681c0.931-0.33,1.846-0.684,2.738-1.054c0.673,3.115,1.141,6.287,1.707,9.507
					c0.72,4.085,1.978,8.429,4.289,11.978c3.549,2.313,7.895,3.569,11.98,4.289c3.219,0.566,6.391,1.033,9.505,1.708
					C250.473,156.296,250.119,157.211,249.789,158.142z M250.672,178.765c-0.766-0.538-1.527-1.236-2.278-2.118
					c-0.03-0.035-0.063-0.057-0.095-0.091c0.375-1.078,0.809-2.078,1.284-2.911c2.477-4.337,5.708-8.116,8.374-12.295
					c6.45,2.17,13.492,4.324,17.794,9.808c0.397,0.506,0.77,1.05,1.111,1.618c-5.263-0.238-10.485,3.721-15.527,5.99
					c5.042,2.271,10.264,6.229,15.527,5.992c-0.341,0.568-0.714,1.111-1.111,1.618c-4.302,5.482-11.344,7.637-17.794,9.808
					c-2.666-4.18-5.897-7.958-8.374-12.297c-0.475-0.831-0.909-1.833-1.284-2.911c0.032-0.033,0.065-0.054,0.095-0.089
					C249.145,180.002,249.905,179.305,250.672,178.765z M235.831,214.596c-0.161-0.924-0.206-1.953-0.113-3.109
					c0.004-0.046-0.004-0.085-0.002-0.13c1.026-0.497,2.041-0.898,2.964-1.15c4.819-1.317,9.776-1.703,14.616-2.775
					c3.026,6.096,6.482,12.598,5.647,19.517c-0.078,0.64-0.199,1.287-0.358,1.929c-3.554-3.89-10.045-4.781-15.215-6.741
					c1.961,5.168,2.853,11.661,6.743,15.215c-0.644,0.16-1.291,0.28-1.929,0.358c-6.919,0.833-13.423-2.621-19.517-5.647
					c1.07-4.84,1.456-9.797,2.773-14.616c0.252-0.924,0.653-1.939,1.15-2.966c0.046-0.002,0.083,0.007,0.13,0.004
					C233.876,214.391,234.907,214.434,235.831,214.596z M200,229.438c0.539-0.768,1.238-1.527,2.119-2.278
					c0.035-0.031,0.058-0.063,0.091-0.095c1.078,0.375,2.078,0.809,2.911,1.284c4.337,2.477,8.116,5.708,12.295,8.374
					c-2.171,6.448-4.324,13.49-9.808,17.792c-0.506,0.399-1.05,0.77-1.618,1.113c0.239-5.265-3.721-10.485-5.991-15.527
					c-2.269,5.042-6.229,10.262-5.991,15.527c-0.568-0.343-1.111-0.714-1.617-1.113c-5.483-4.302-7.637-11.344-9.808-17.792
					c4.18-2.666,7.958-5.897,12.297-8.374c0.832-0.475,1.833-0.909,2.911-1.284c0.033,0.032,0.055,0.063,0.09,0.095
					C198.763,227.911,199.46,228.67,200,229.438z M164.169,214.596c0.924-0.161,1.954-0.204,3.11-0.111
					c0.046,0.004,0.085-0.006,0.13-0.004c0.497,1.028,0.898,2.042,1.15,2.966c1.317,4.82,1.703,9.776,2.774,14.616
					c-6.095,3.026-12.598,6.48-19.517,5.647c-0.639-0.078-1.286-0.199-1.93-0.358c3.89-3.554,4.782-10.047,6.742-15.215
					c-5.169,1.961-11.661,2.851-15.215,6.741c-0.16-0.642-0.281-1.289-0.358-1.929c-0.835-6.919,2.621-13.422,5.646-19.517
					c4.84,1.072,9.797,1.458,14.616,2.775c0.924,0.252,1.939,0.653,2.966,1.15c0.002,0.044-0.006,0.083-0.002,0.13
					C164.374,212.642,164.33,213.672,164.169,214.596z M149.327,178.765c0.767,0.54,1.527,1.237,2.279,2.12
					c0.03,0.035,0.063,0.056,0.094,0.089c-0.375,1.078-0.809,2.079-1.284,2.911c-2.476,4.339-5.708,8.118-8.373,12.297
					c-6.449-2.17-13.491-4.326-17.793-9.808c-0.397-0.506-0.77-1.05-1.111-1.618c5.263,0.237,10.485-3.721,15.526-5.992
					c-5.041-2.269-10.263-6.228-15.526-5.99c0.341-0.568,0.714-1.111,1.111-1.618c4.303-5.484,11.344-7.637,17.793-9.808
					c2.666,4.18,5.897,7.958,8.373,12.295c0.475,0.833,0.909,1.833,1.284,2.911c-0.031,0.033-0.064,0.056-0.094,0.091
					C150.854,177.529,150.095,178.227,149.327,178.765z M164.169,142.934c0.161,0.924,0.205,1.955,0.113,3.111
					c-0.004,0.046,0.004,0.083,0.002,0.13c-1.027,0.497-2.042,0.898-2.966,1.15c-4.819,1.317-9.775,1.703-14.616,2.773
					c-3.025-6.094-6.481-12.598-5.646-19.517c0.077-0.638,0.198-1.286,0.358-1.929c3.553,3.89,10.046,4.782,15.215,6.743
					c-1.96-5.17-2.852-11.661-6.742-15.215c0.643-0.16,1.291-0.28,1.93-0.358c6.919-0.835,13.422,2.621,19.517,5.647
					c-1.071,4.84-1.458,9.797-2.774,14.616c-0.252,0.924-0.653,1.938-1.15,2.966c-0.045,0-0.083-0.007-0.13-0.004
					C166.123,143.14,165.093,143.096,164.169,142.934z M200,128.094c-0.539,0.766-1.237,1.527-2.119,2.278
					c-0.035,0.03-0.057,0.063-0.09,0.095c-1.078-0.375-2.079-0.809-2.911-1.284c-4.338-2.477-8.117-5.708-12.297-8.374
					c2.171-6.45,4.325-13.49,9.808-17.794c0.506-0.397,1.049-0.77,1.617-1.111c-0.238,5.265,3.722,10.485,5.991,15.527
					c2.269-5.042,6.23-10.262,5.991-15.527c0.568,0.341,1.111,0.714,1.618,1.111c5.484,4.304,7.637,11.344,9.808,17.794
					c-4.18,2.666-7.958,5.897-12.295,8.374c-0.833,0.475-1.833,0.909-2.911,1.284c-0.033-0.031-0.056-0.065-0.091-0.095
					C201.238,129.62,200.539,128.86,200,128.094z M235.831,142.934c-0.924,0.161-1.955,0.206-3.111,0.113
					c-0.046-0.004-0.083,0.004-0.13,0.004c-0.497-1.028-0.898-2.042-1.15-2.966c-1.317-4.82-1.703-9.776-2.773-14.616
					c6.094-3.026,12.598-6.482,19.517-5.647c0.638,0.078,1.286,0.199,1.929,0.358c-3.89,3.554-4.782,10.045-6.743,15.215
					c5.17-1.961,11.661-2.853,15.215-6.743c0.159,0.644,0.28,1.291,0.358,1.929c0.835,6.919-2.621,13.423-5.647,19.517
					c-4.84-1.07-9.797-1.456-14.616-2.773c-0.924-0.252-1.939-0.653-2.964-1.15c-0.002-0.046,0.006-0.083,0.002-0.13
					C235.625,144.889,235.67,143.858,235.831,142.934z"/>
				
					<linearGradient id="SVGID_00000123425403654569043900000017289541947624511104_" gradientUnits="userSpaceOnUse" x1="124.5749" y1="254.1902" x2="275.4238" y2="103.3413">
					<stop  offset="0" style="stop-color:#D3A53C"/>
					<stop  offset="0.2016" style="stop-color:#F8DF7A"/>
					<stop  offset="0.4162" style="stop-color:#F1D46E"/>
					<stop  offset="0.4297" style="stop-color:#ECCC65"/>
					<stop  offset="0.491" style="stop-color:#D6AD43"/>
					<stop  offset="0.5492" style="stop-color:#C7972B"/>
					<stop  offset="0.6026" style="stop-color:#BD8A1C"/>
					<stop  offset="0.6466" style="stop-color:#BA8517"/>
					<stop  offset="0.6823" style="stop-color:#C6982F"/>
					<stop  offset="0.7499" style="stop-color:#DAB756"/>
					<stop  offset="0.8168" style="stop-color:#E9CF75"/>
					<stop  offset="0.8817" style="stop-color:#F4E18B"/>
					<stop  offset="0.9438" style="stop-color:#FBEB98"/>
					<stop  offset="1" style="stop-color:#FDEF9D"/>
				</linearGradient>
				<path style="fill:url(#SVGID_00000123425403654569043900000017289541947624511104_);" d="M281.032,145.201
					c-0.714,5.421-0.147,10.999,1.825,16.26c1.536,4.096,4.51,9.16,6.357,14.275c-0.399,0.464-0.764,0.963-1.048,1.534
					c-0.258,0.516-0.351,1.022-0.321,1.495c-0.03,0.475,0.063,0.981,0.321,1.497c0.284,0.571,0.649,1.07,1.048,1.534
					c-1.848,5.114-4.821,10.179-6.357,14.275c-1.972,5.261-2.54,10.839-1.825,16.26c-4.339,3.328-7.88,7.673-10.207,12.787
					c-1.811,3.983-3.289,9.667-5.599,14.59c-0.61,0.044-1.221,0.139-1.825,0.343c-0.547,0.182-0.972,0.475-1.286,0.831
					c-0.356,0.314-0.647,0.738-0.831,1.286c-0.202,0.605-0.299,1.215-0.343,1.825c-4.923,2.309-10.607,3.788-14.59,5.599
					c-5.114,2.326-9.459,5.868-12.787,10.207c-5.42-0.716-10.999-0.147-16.258,1.825c-4.098,1.536-9.162,4.508-14.277,6.357
					c-0.462-0.401-0.963-0.764-1.534-1.05c-0.516-0.256-1.022-0.351-1.496-0.319c-0.474-0.032-0.98,0.063-1.497,0.319
					c-0.571,0.286-1.07,0.649-1.533,1.05c-5.115-1.85-10.179-4.821-14.276-6.357c-5.261-1.972-10.838-2.542-16.259-1.825
					c-3.327-4.339-7.673-7.88-12.787-10.207c-3.983-1.811-9.666-3.289-14.589-5.599c-0.045-0.61-0.14-1.221-0.343-1.825
					c-0.183-0.547-0.475-0.972-0.832-1.286c-0.313-0.356-0.738-0.649-1.285-0.831c-0.605-0.204-1.216-0.299-1.825-0.343
					c-2.31-4.923-3.788-10.607-5.6-14.59c-2.326-5.114-5.867-9.459-10.207-12.787c0.716-5.421,0.147-10.999-1.825-16.26
					c-1.536-4.096-4.509-9.16-6.357-14.275c0.399-0.464,0.764-0.963,1.049-1.534c0.257-0.516,0.351-1.022,0.32-1.497
					c0.031-0.473-0.063-0.98-0.32-1.495c-0.284-0.571-0.649-1.07-1.049-1.534c1.848-5.115,4.822-10.179,6.357-14.275
					c1.972-5.261,2.54-10.839,1.825-16.26c4.34-3.328,7.881-7.673,10.207-12.787c1.811-3.983,3.29-9.667,5.6-14.59
					c0.61-0.045,1.221-0.141,1.825-0.343c0.547-0.184,0.971-0.475,1.285-0.831c0.357-0.313,0.649-0.738,0.832-1.286
					c0.203-0.605,0.298-1.215,0.343-1.825c4.923-2.31,10.607-3.788,14.589-5.599c5.114-2.326,9.46-5.868,12.787-10.207
					c5.421,0.714,10.998,0.146,16.259-1.825c4.097-1.536,9.161-4.508,14.276-6.357c0.463,0.399,0.962,0.764,1.533,1.048
					c0.516,0.258,1.023,0.351,1.497,0.321c0.474,0.03,0.98-0.063,1.496-0.321c0.571-0.284,1.072-0.649,1.534-1.048
					c5.114,1.85,10.179,4.821,14.277,6.357c5.259,1.972,10.837,2.54,16.258,1.825c3.328,4.339,7.673,7.88,12.787,10.207
					c3.983,1.811,9.667,3.289,14.59,5.599c0.045,0.61,0.141,1.221,0.343,1.825c0.184,0.547,0.475,0.972,0.831,1.286
					c0.314,0.356,0.738,0.647,1.286,0.831c0.605,0.202,1.215,0.299,1.825,0.343c2.309,4.923,3.788,10.607,5.599,14.59
					C273.151,137.528,276.693,141.873,281.032,145.201z M306.667,178.765c-0.065-0.07-0.132-0.141-0.206-0.212
					c-2.825-2.677-6.07-5.515-10.168-5.697c-0.729-0.031-1.453,0.031-2.161,0.158c-0.451-1.245-0.952-2.464-1.484-3.641
					c-1.844-4.066-3.94-8.005-5.181-12.236c0.618-0.451,1.082-1.143,1.18-2.081c0.493-4.691,1.235-9.335,2.215-13.926
					c-3.938-2.553-7.747-5.311-11.412-8.279c-0.735-0.596-1.551-0.757-2.308-0.64c-2.115-3.868-3.417-8.134-4.988-12.314
					c-0.454-1.209-0.963-2.426-1.525-3.627c0.59-0.41,1.146-0.878,1.638-1.415c2.77-3.026,3.057-7.326,3.163-11.218
					c0.002-0.102,0-0.2-0.006-0.295c-0.095-0.006-0.193-0.007-0.295-0.006c-3.892,0.106-8.192,0.393-11.218,3.163
					c-0.538,0.492-1.005,1.048-1.415,1.638c-1.2-0.562-2.417-1.07-3.627-1.525c-4.179-1.571-8.446-2.874-12.314-4.988
					c0.117-0.757-0.045-1.573-0.64-2.308c-2.968-3.666-5.727-7.474-8.279-11.412c-4.59,0.979-9.235,1.723-13.924,2.215
					c-0.94,0.098-1.631,0.562-2.083,1.18c-4.232-1.239-8.17-3.335-12.236-5.181c-1.176-0.532-2.397-1.033-3.642-1.484
					c0.126-0.709,0.189-1.432,0.158-2.161c-0.182-4.098-3.02-7.342-5.697-10.168c-0.07-0.074-0.14-0.141-0.212-0.206
					c-0.072,0.065-0.143,0.132-0.212,0.206c-2.678,2.825-5.515,6.07-5.696,10.168c-0.032,0.729,0.03,1.452,0.158,2.161
					c-1.245,0.451-2.465,0.952-3.642,1.484c-4.067,1.846-8.005,3.942-12.235,5.181c-0.452-0.618-1.144-1.082-2.083-1.18
					c-4.691-0.492-9.335-1.236-13.925-2.215c-2.553,3.938-5.312,7.747-8.28,11.412c-0.594,0.735-0.756,1.551-0.639,2.308
					c-3.868,2.115-8.135,3.417-12.315,4.988c-1.21,0.454-2.426,0.963-3.625,1.525c-0.411-0.59-0.879-1.146-1.416-1.638
					c-3.026-2.77-7.327-3.057-11.218-3.163c-0.101-0.002-0.2,0-0.295,0.006c-0.006,0.095-0.007,0.193-0.005,0.295
					c0.105,3.892,0.393,8.192,3.162,11.218c0.492,0.538,1.048,1.005,1.639,1.415c-0.562,1.2-1.07,2.417-1.525,3.627
					c-1.572,4.18-2.874,8.446-4.989,12.314c-0.757-0.117-1.573,0.044-2.307,0.64c-3.665,2.968-7.474,5.727-11.412,8.279
					c0.98,4.591,1.722,9.235,2.215,13.926c0.099,0.939,0.561,1.631,1.179,2.081c-1.239,4.231-3.336,8.17-5.18,12.236
					c-0.534,1.178-1.034,2.397-1.485,3.641c-0.708-0.126-1.432-0.189-2.16-0.158c-4.098,0.182-7.343,3.02-10.168,5.697
					c-0.074,0.07-0.142,0.141-0.205,0.212c0.063,0.072,0.132,0.143,0.205,0.213c2.826,2.677,6.07,5.515,10.168,5.695
					c0.728,0.033,1.452-0.03,2.16-0.158c0.451,1.247,0.952,2.465,1.485,3.643c1.844,4.066,3.941,8.005,5.18,12.234
					c-0.618,0.453-1.08,1.145-1.179,2.083c-0.493,4.691-1.235,9.335-2.215,13.926c3.938,2.553,7.747,5.311,11.412,8.279
					c0.734,0.595,1.55,0.757,2.307,0.64c2.115,3.868,3.417,8.135,4.989,12.314c0.455,1.21,0.963,2.426,1.525,3.627
					c-0.59,0.41-1.147,0.877-1.639,1.415c-2.77,3.026-3.058,7.326-3.162,11.218c-0.003,0.1-0.001,0.199,0.005,0.295
					c0.096,0.006,0.194,0.007,0.295,0.006c3.891-0.106,8.192-0.393,11.218-3.163c0.537-0.492,1.005-1.048,1.416-1.638
					c1.2,0.56,2.416,1.069,3.625,1.525c4.18,1.571,8.447,2.874,12.315,4.988c-0.117,0.757,0.045,1.573,0.639,2.306
					c2.969,3.666,5.727,7.474,8.28,11.412c4.59-0.98,9.234-1.722,13.925-2.213c0.94-0.1,1.631-0.562,2.083-1.18
					c4.23,1.239,8.168,3.335,12.235,5.179c1.177,0.534,2.397,1.035,3.642,1.486c-0.127,0.709-0.19,1.432-0.158,2.159
					c0.181,4.098,3.019,7.342,5.696,10.169c0.07,0.072,0.14,0.141,0.212,0.204c0.072-0.063,0.143-0.132,0.212-0.204
					c2.677-2.827,5.515-6.072,5.697-10.169c0.032-0.727-0.032-1.451-0.158-2.159c1.245-0.451,2.465-0.952,3.642-1.486
					c4.066-1.844,8.005-3.94,12.236-5.179c0.453,0.618,1.143,1.08,2.083,1.18c4.69,0.492,9.335,1.234,13.924,2.213
					c2.553-3.938,5.311-7.747,8.279-11.412c0.595-0.733,0.757-1.549,0.64-2.306c3.868-2.115,8.135-3.417,12.314-4.988
					c1.21-0.456,2.427-0.965,3.627-1.525c0.41,0.59,0.877,1.146,1.415,1.638c3.026,2.77,7.326,3.057,11.218,3.163
					c0.102,0.002,0.2,0,0.295-0.006c0.006-0.096,0.007-0.195,0.006-0.295c-0.106-3.892-0.393-8.192-3.163-11.218
					c-0.492-0.538-1.048-1.005-1.638-1.415c0.562-1.2,1.07-2.417,1.525-3.627c1.571-4.179,2.874-8.446,4.988-12.314
					c0.757,0.117,1.573-0.045,2.308-0.64c3.666-2.968,7.474-5.727,11.412-8.279c-0.979-4.591-1.721-9.235-2.215-13.926
					c-0.098-0.939-0.562-1.631-1.18-2.083c1.241-4.23,3.337-8.168,5.181-12.234c0.533-1.178,1.033-2.397,1.484-3.643
					c0.709,0.128,1.432,0.191,2.161,0.158c4.098-0.18,7.342-3.018,10.168-5.695C306.535,178.908,306.602,178.837,306.667,178.765z"
					/>
			</g>
			
				<linearGradient id="SVGID_00000173143839954221081790000016741049092870876576_" gradientUnits="userSpaceOnUse" x1="254.5493" y1="180.7443" x2="258.5073" y2="176.7864">
				<stop  offset="0" style="stop-color:#D3A53C"/>
				<stop  offset="0.2016" style="stop-color:#F8DF7A"/>
				<stop  offset="0.4162" style="stop-color:#F1D46E"/>
				<stop  offset="0.4297" style="stop-color:#ECCC65"/>
				<stop  offset="0.491" style="stop-color:#D6AD43"/>
				<stop  offset="0.5492" style="stop-color:#C7972B"/>
				<stop  offset="0.6026" style="stop-color:#BD8A1C"/>
				<stop  offset="0.6466" style="stop-color:#BA8517"/>
				<stop  offset="0.6823" style="stop-color:#C6982F"/>
				<stop  offset="0.7499" style="stop-color:#DAB756"/>
				<stop  offset="0.8168" style="stop-color:#E9CF75"/>
				<stop  offset="0.8817" style="stop-color:#F4E18B"/>
				<stop  offset="0.9438" style="stop-color:#FBEB98"/>
				<stop  offset="1" style="stop-color:#FDEF9D"/>
			</linearGradient>
			<path style="fill:url(#SVGID_00000173143839954221081790000016741049092870876576_);" d="M259.273,178.765
				c-0.028-1.399-0.942-2.775-2.746-2.775c-1.801,0-2.718,1.377-2.747,2.775c0.03,1.399,0.946,2.777,2.747,2.777
				C258.331,181.542,259.246,180.163,259.273,178.765z"/>
			
				<linearGradient id="SVGID_00000150073471011481597370000012938353986778373279_" gradientUnits="userSpaceOnUse" x1="238.0088" y1="220.6987" x2="241.9342" y2="216.7734">
				<stop  offset="0" style="stop-color:#D3A53C"/>
				<stop  offset="0.2016" style="stop-color:#F8DF7A"/>
				<stop  offset="0.4162" style="stop-color:#F1D46E"/>
				<stop  offset="0.4297" style="stop-color:#ECCC65"/>
				<stop  offset="0.491" style="stop-color:#D6AD43"/>
				<stop  offset="0.5492" style="stop-color:#C7972B"/>
				<stop  offset="0.6026" style="stop-color:#BD8A1C"/>
				<stop  offset="0.6466" style="stop-color:#BA8517"/>
				<stop  offset="0.6823" style="stop-color:#C6982F"/>
				<stop  offset="0.7499" style="stop-color:#DAB756"/>
				<stop  offset="0.8168" style="stop-color:#E9CF75"/>
				<stop  offset="0.8817" style="stop-color:#F4E18B"/>
				<stop  offset="0.9438" style="stop-color:#FBEB98"/>
				<stop  offset="1" style="stop-color:#FDEF9D"/>
			</linearGradient>
			<path style="fill:url(#SVGID_00000150073471011481597370000012938353986778373279_);" d="M241.912,220.678
				c0.97-1.009,1.297-2.629,0.022-3.905c-1.274-1.273-2.896-0.946-3.905,0.022c-0.968,1.009-1.295,2.63-0.02,3.903
				C239.283,221.975,240.903,221.647,241.912,220.678z"/>
			
				<linearGradient id="SVGID_00000024708407939011056490000005314152450518812093_" gradientUnits="userSpaceOnUse" x1="198.0214" y1="237.2722" x2="201.9783" y2="233.3152">
				<stop  offset="0" style="stop-color:#D3A53C"/>
				<stop  offset="0.2016" style="stop-color:#F8DF7A"/>
				<stop  offset="0.4162" style="stop-color:#F1D46E"/>
				<stop  offset="0.4297" style="stop-color:#ECCC65"/>
				<stop  offset="0.491" style="stop-color:#D6AD43"/>
				<stop  offset="0.5492" style="stop-color:#C7972B"/>
				<stop  offset="0.6026" style="stop-color:#BD8A1C"/>
				<stop  offset="0.6466" style="stop-color:#BA8517"/>
				<stop  offset="0.6823" style="stop-color:#C6982F"/>
				<stop  offset="0.7499" style="stop-color:#DAB756"/>
				<stop  offset="0.8168" style="stop-color:#E9CF75"/>
				<stop  offset="0.8817" style="stop-color:#F4E18B"/>
				<stop  offset="0.9438" style="stop-color:#FBEB98"/>
				<stop  offset="1" style="stop-color:#FDEF9D"/>
			</linearGradient>
			<path style="fill:url(#SVGID_00000024708407939011056490000005314152450518812093_);" d="M200,238.038
				c1.399-0.028,2.776-0.942,2.776-2.745c0-1.799-1.376-2.716-2.776-2.745c-1.399,0.03-2.776,0.946-2.776,2.745
				C197.224,237.096,198.601,238.01,200,238.038z"/>
			
				<linearGradient id="SVGID_00000112600693816052611550000015027600002238366399_" gradientUnits="userSpaceOnUse" x1="158.0867" y1="220.6779" x2="161.9697" y2="216.795">
				<stop  offset="0" style="stop-color:#D3A53C"/>
				<stop  offset="0.2016" style="stop-color:#F8DF7A"/>
				<stop  offset="0.4162" style="stop-color:#F1D46E"/>
				<stop  offset="0.4297" style="stop-color:#ECCC65"/>
				<stop  offset="0.491" style="stop-color:#D6AD43"/>
				<stop  offset="0.5492" style="stop-color:#C7972B"/>
				<stop  offset="0.6026" style="stop-color:#BD8A1C"/>
				<stop  offset="0.6466" style="stop-color:#BA8517"/>
				<stop  offset="0.6823" style="stop-color:#C6982F"/>
				<stop  offset="0.7499" style="stop-color:#DAB756"/>
				<stop  offset="0.8168" style="stop-color:#E9CF75"/>
				<stop  offset="0.8817" style="stop-color:#F4E18B"/>
				<stop  offset="0.9438" style="stop-color:#FBEB98"/>
				<stop  offset="1" style="stop-color:#FDEF9D"/>
			</linearGradient>
			<path style="fill:url(#SVGID_00000112600693816052611550000015027600002238366399_);" d="M158.087,220.678
				c1.009,0.968,2.629,1.297,3.904,0.02c1.273-1.273,0.947-2.894-0.021-3.903c-1.01-0.968-2.631-1.295-3.904-0.022
				C156.791,218.05,157.118,219.669,158.087,220.678z"/>
			
				<linearGradient id="SVGID_00000157299335600928005130000003449575548327753114_" gradientUnits="userSpaceOnUse" x1="141.4924" y1="180.7442" x2="145.4501" y2="176.7865">
				<stop  offset="0" style="stop-color:#D3A53C"/>
				<stop  offset="0.2016" style="stop-color:#F8DF7A"/>
				<stop  offset="0.4162" style="stop-color:#F1D46E"/>
				<stop  offset="0.4297" style="stop-color:#ECCC65"/>
				<stop  offset="0.491" style="stop-color:#D6AD43"/>
				<stop  offset="0.5492" style="stop-color:#C7972B"/>
				<stop  offset="0.6026" style="stop-color:#BD8A1C"/>
				<stop  offset="0.6466" style="stop-color:#BA8517"/>
				<stop  offset="0.6823" style="stop-color:#C6982F"/>
				<stop  offset="0.7499" style="stop-color:#DAB756"/>
				<stop  offset="0.8168" style="stop-color:#E9CF75"/>
				<stop  offset="0.8817" style="stop-color:#F4E18B"/>
				<stop  offset="0.9438" style="stop-color:#FBEB98"/>
				<stop  offset="1" style="stop-color:#FDEF9D"/>
			</linearGradient>
			<path style="fill:url(#SVGID_00000157299335600928005130000003449575548327753114_);" d="M140.726,178.765
				c0.028,1.399,0.942,2.777,2.746,2.777c1.801,0,2.717-1.378,2.746-2.777c-0.029-1.399-0.945-2.775-2.746-2.775
				C141.669,175.99,140.754,177.366,140.726,178.765z"/>
			
				<linearGradient id="SVGID_00000096743569451718021290000016800423402958727598_" gradientUnits="userSpaceOnUse" x1="158.0656" y1="140.7576" x2="161.9908" y2="136.8324">
				<stop  offset="0" style="stop-color:#D3A53C"/>
				<stop  offset="0.2016" style="stop-color:#F8DF7A"/>
				<stop  offset="0.4162" style="stop-color:#F1D46E"/>
				<stop  offset="0.4297" style="stop-color:#ECCC65"/>
				<stop  offset="0.491" style="stop-color:#D6AD43"/>
				<stop  offset="0.5492" style="stop-color:#C7972B"/>
				<stop  offset="0.6026" style="stop-color:#BD8A1C"/>
				<stop  offset="0.6466" style="stop-color:#BA8517"/>
				<stop  offset="0.6823" style="stop-color:#C6982F"/>
				<stop  offset="0.7499" style="stop-color:#DAB756"/>
				<stop  offset="0.8168" style="stop-color:#E9CF75"/>
				<stop  offset="0.8817" style="stop-color:#F4E18B"/>
				<stop  offset="0.9438" style="stop-color:#FBEB98"/>
				<stop  offset="1" style="stop-color:#FDEF9D"/>
			</linearGradient>
			<path style="fill:url(#SVGID_00000096743569451718021290000016800423402958727598_);" d="M158.087,136.853
				c-0.969,1.009-1.296,2.629-0.021,3.905c1.273,1.273,2.894,0.946,3.904-0.022c0.968-1.009,1.294-2.63,0.021-3.903
				C160.716,135.557,159.096,135.883,158.087,136.853z"/>
			
				<linearGradient id="SVGID_00000071521198143601456690000006398267675640751011_" gradientUnits="userSpaceOnUse" x1="198.021" y1="124.2156" x2="201.9787" y2="120.2579">
				<stop  offset="0" style="stop-color:#D3A53C"/>
				<stop  offset="0.2016" style="stop-color:#F8DF7A"/>
				<stop  offset="0.4162" style="stop-color:#F1D46E"/>
				<stop  offset="0.4297" style="stop-color:#ECCC65"/>
				<stop  offset="0.491" style="stop-color:#D6AD43"/>
				<stop  offset="0.5492" style="stop-color:#C7972B"/>
				<stop  offset="0.6026" style="stop-color:#BD8A1C"/>
				<stop  offset="0.6466" style="stop-color:#BA8517"/>
				<stop  offset="0.6823" style="stop-color:#C6982F"/>
				<stop  offset="0.7499" style="stop-color:#DAB756"/>
				<stop  offset="0.8168" style="stop-color:#E9CF75"/>
				<stop  offset="0.8817" style="stop-color:#F4E18B"/>
				<stop  offset="0.9438" style="stop-color:#FBEB98"/>
				<stop  offset="1" style="stop-color:#FDEF9D"/>
			</linearGradient>
			<path style="fill:url(#SVGID_00000071521198143601456690000006398267675640751011_);" d="M200,119.492
				c-1.399,0.028-2.776,0.942-2.776,2.745c0,1.801,1.377,2.718,2.776,2.747c1.399-0.03,2.776-0.946,2.776-2.747
				C202.775,120.434,201.399,119.519,200,119.492z"/>
			
				<linearGradient id="SVGID_00000103252803961047043870000014032545295455797183_" gradientUnits="userSpaceOnUse" x1="238.0302" y1="140.7368" x2="241.9128" y2="136.8541">
				<stop  offset="0" style="stop-color:#D3A53C"/>
				<stop  offset="0.2016" style="stop-color:#F8DF7A"/>
				<stop  offset="0.4162" style="stop-color:#F1D46E"/>
				<stop  offset="0.4297" style="stop-color:#ECCC65"/>
				<stop  offset="0.491" style="stop-color:#D6AD43"/>
				<stop  offset="0.5492" style="stop-color:#C7972B"/>
				<stop  offset="0.6026" style="stop-color:#BD8A1C"/>
				<stop  offset="0.6466" style="stop-color:#BA8517"/>
				<stop  offset="0.6823" style="stop-color:#C6982F"/>
				<stop  offset="0.7499" style="stop-color:#DAB756"/>
				<stop  offset="0.8168" style="stop-color:#E9CF75"/>
				<stop  offset="0.8817" style="stop-color:#F4E18B"/>
				<stop  offset="0.9438" style="stop-color:#FBEB98"/>
				<stop  offset="1" style="stop-color:#FDEF9D"/>
			</linearGradient>
			<path style="fill:url(#SVGID_00000103252803961047043870000014032545295455797183_);" d="M241.912,136.853
				c-1.009-0.97-2.629-1.297-3.903-0.02c-1.274,1.273-0.948,2.894,0.02,3.903c1.009,0.968,2.631,1.295,3.905,0.022
				C243.209,139.482,242.882,137.862,241.912,136.853z"/>
			
				<linearGradient id="SVGID_00000068658261306546754970000012042108508204609417_" gradientUnits="userSpaceOnUse" x1="264.7563" y1="153.1098" x2="268.6675" y2="149.1986">
				<stop  offset="0" style="stop-color:#D3A53C"/>
				<stop  offset="0.2016" style="stop-color:#F8DF7A"/>
				<stop  offset="0.4162" style="stop-color:#F1D46E"/>
				<stop  offset="0.4297" style="stop-color:#ECCC65"/>
				<stop  offset="0.491" style="stop-color:#D6AD43"/>
				<stop  offset="0.5492" style="stop-color:#C7972B"/>
				<stop  offset="0.6026" style="stop-color:#BD8A1C"/>
				<stop  offset="0.6466" style="stop-color:#BA8517"/>
				<stop  offset="0.6823" style="stop-color:#C6982F"/>
				<stop  offset="0.7499" style="stop-color:#DAB756"/>
				<stop  offset="0.8168" style="stop-color:#E9CF75"/>
				<stop  offset="0.8817" style="stop-color:#F4E18B"/>
				<stop  offset="0.9438" style="stop-color:#FBEB98"/>
				<stop  offset="1" style="stop-color:#FDEF9D"/>
			</linearGradient>
			<path style="fill:url(#SVGID_00000068658261306546754970000012042108508204609417_);" d="M264.175,152.184
				c0.364,0.953,1.211,1.703,2.542,1.703c2.261,0,3.128-2.17,2.593-3.831c-0.796-1.549-2.944-2.473-4.543-0.874
				C263.826,150.122,263.757,151.25,264.175,152.184z"/>
			
				<linearGradient id="SVGID_00000106828930842667927560000012822907308876375485_" gradientUnits="userSpaceOnUse" x1="264.7526" y1="208.3356" x2="268.6703" y2="204.4179">
				<stop  offset="0" style="stop-color:#D3A53C"/>
				<stop  offset="0.2016" style="stop-color:#F8DF7A"/>
				<stop  offset="0.4162" style="stop-color:#F1D46E"/>
				<stop  offset="0.4297" style="stop-color:#ECCC65"/>
				<stop  offset="0.491" style="stop-color:#D6AD43"/>
				<stop  offset="0.5492" style="stop-color:#C7972B"/>
				<stop  offset="0.6026" style="stop-color:#BD8A1C"/>
				<stop  offset="0.6466" style="stop-color:#BA8517"/>
				<stop  offset="0.6823" style="stop-color:#C6982F"/>
				<stop  offset="0.7499" style="stop-color:#DAB756"/>
				<stop  offset="0.8168" style="stop-color:#E9CF75"/>
				<stop  offset="0.8817" style="stop-color:#F4E18B"/>
				<stop  offset="0.9438" style="stop-color:#FBEB98"/>
				<stop  offset="1" style="stop-color:#FDEF9D"/>
			</linearGradient>
			<path style="fill:url(#SVGID_00000106828930842667927560000012822907308876375485_);" d="M264.175,205.348
				c-0.417,0.931-0.349,2.061,0.592,3.001c1.599,1.597,3.747,0.675,4.543-0.876c0.534-1.658-0.332-3.829-2.593-3.829
				C265.386,203.645,264.538,204.393,264.175,205.348z"/>
			
				<linearGradient id="SVGID_00000044151484231184797130000005706965830444497034_" gradientUnits="userSpaceOnUse" x1="225.6528" y1="247.4362" x2="229.5696" y2="243.5193">
				<stop  offset="0" style="stop-color:#D3A53C"/>
				<stop  offset="0.2016" style="stop-color:#F8DF7A"/>
				<stop  offset="0.4162" style="stop-color:#F1D46E"/>
				<stop  offset="0.4297" style="stop-color:#ECCC65"/>
				<stop  offset="0.491" style="stop-color:#D6AD43"/>
				<stop  offset="0.5492" style="stop-color:#C7972B"/>
				<stop  offset="0.6026" style="stop-color:#BD8A1C"/>
				<stop  offset="0.6466" style="stop-color:#BA8517"/>
				<stop  offset="0.6823" style="stop-color:#C6982F"/>
				<stop  offset="0.7499" style="stop-color:#DAB756"/>
				<stop  offset="0.8168" style="stop-color:#E9CF75"/>
				<stop  offset="0.8817" style="stop-color:#F4E18B"/>
				<stop  offset="0.9438" style="stop-color:#FBEB98"/>
				<stop  offset="1" style="stop-color:#FDEF9D"/>
			</linearGradient>
			<path style="fill:url(#SVGID_00000044151484231184797130000005706965830444497034_);" d="M226.582,242.941
				c-0.953,0.364-1.703,1.21-1.703,2.54c0,2.261,2.17,3.128,3.831,2.595c1.549-0.796,2.473-2.944,0.874-4.543
				C228.643,242.592,227.515,242.524,226.582,242.941z"/>
			
				<linearGradient id="SVGID_00000173857644660035425050000002416073582328265365_" gradientUnits="userSpaceOnUse" x1="170.4324" y1="247.4335" x2="174.344" y2="243.5219">
				<stop  offset="0" style="stop-color:#D3A53C"/>
				<stop  offset="0.2016" style="stop-color:#F8DF7A"/>
				<stop  offset="0.4162" style="stop-color:#F1D46E"/>
				<stop  offset="0.4297" style="stop-color:#ECCC65"/>
				<stop  offset="0.491" style="stop-color:#D6AD43"/>
				<stop  offset="0.5492" style="stop-color:#C7972B"/>
				<stop  offset="0.6026" style="stop-color:#BD8A1C"/>
				<stop  offset="0.6466" style="stop-color:#BA8517"/>
				<stop  offset="0.6823" style="stop-color:#C6982F"/>
				<stop  offset="0.7499" style="stop-color:#DAB756"/>
				<stop  offset="0.8168" style="stop-color:#E9CF75"/>
				<stop  offset="0.8817" style="stop-color:#F4E18B"/>
				<stop  offset="0.9438" style="stop-color:#FBEB98"/>
				<stop  offset="1" style="stop-color:#FDEF9D"/>
			</linearGradient>
			<path style="fill:url(#SVGID_00000173857644660035425050000002416073582328265365_);" d="M173.417,242.941
				c-0.932-0.417-2.06-0.349-3.001,0.592c-1.599,1.599-0.676,3.747,0.874,4.543c1.659,0.532,3.83-0.334,3.83-2.595
				C175.121,244.151,174.372,243.305,173.417,242.941z"/>
			
				<linearGradient id="SVGID_00000137816928082475130870000017635411055487904664_" gradientUnits="userSpaceOnUse" x1="131.3323" y1="208.3324" x2="135.2433" y2="204.4214">
				<stop  offset="0" style="stop-color:#D3A53C"/>
				<stop  offset="0.2016" style="stop-color:#F8DF7A"/>
				<stop  offset="0.4162" style="stop-color:#F1D46E"/>
				<stop  offset="0.4297" style="stop-color:#ECCC65"/>
				<stop  offset="0.491" style="stop-color:#D6AD43"/>
				<stop  offset="0.5492" style="stop-color:#C7972B"/>
				<stop  offset="0.6026" style="stop-color:#BD8A1C"/>
				<stop  offset="0.6466" style="stop-color:#BA8517"/>
				<stop  offset="0.6823" style="stop-color:#C6982F"/>
				<stop  offset="0.7499" style="stop-color:#DAB756"/>
				<stop  offset="0.8168" style="stop-color:#E9CF75"/>
				<stop  offset="0.8817" style="stop-color:#F4E18B"/>
				<stop  offset="0.9438" style="stop-color:#FBEB98"/>
				<stop  offset="1" style="stop-color:#FDEF9D"/>
			</linearGradient>
			<path style="fill:url(#SVGID_00000137816928082475130870000017635411055487904664_);" d="M135.824,205.348
				c-0.364-0.955-1.211-1.703-2.541-1.703c-2.261,0-3.127,2.171-2.594,3.829c0.796,1.551,2.944,2.473,4.543,0.876
				C136.173,207.409,136.242,206.279,135.824,205.348z"/>
			
				<linearGradient id="SVGID_00000115510881157718648100000016561483361376583553_" gradientUnits="userSpaceOnUse" x1="131.3288" y1="153.1126" x2="135.2458" y2="149.1955">
				<stop  offset="0" style="stop-color:#D3A53C"/>
				<stop  offset="0.2016" style="stop-color:#F8DF7A"/>
				<stop  offset="0.4162" style="stop-color:#F1D46E"/>
				<stop  offset="0.4297" style="stop-color:#ECCC65"/>
				<stop  offset="0.491" style="stop-color:#D6AD43"/>
				<stop  offset="0.5492" style="stop-color:#C7972B"/>
				<stop  offset="0.6026" style="stop-color:#BD8A1C"/>
				<stop  offset="0.6466" style="stop-color:#BA8517"/>
				<stop  offset="0.6823" style="stop-color:#C6982F"/>
				<stop  offset="0.7499" style="stop-color:#DAB756"/>
				<stop  offset="0.8168" style="stop-color:#E9CF75"/>
				<stop  offset="0.8817" style="stop-color:#F4E18B"/>
				<stop  offset="0.9438" style="stop-color:#FBEB98"/>
				<stop  offset="1" style="stop-color:#FDEF9D"/>
			</linearGradient>
			<path style="fill:url(#SVGID_00000115510881157718648100000016561483361376583553_);" d="M135.824,152.184
				c0.418-0.933,0.349-2.061-0.592-3.001c-1.599-1.599-3.747-0.675-4.543,0.874c-0.533,1.66,0.333,3.831,2.594,3.831
				C134.614,153.886,135.46,153.137,135.824,152.184z"/>
			
				<linearGradient id="SVGID_00000107569351050864276300000010264226447618710410_" gradientUnits="userSpaceOnUse" x1="170.4296" y1="114.012" x2="174.347" y2="110.0946">
				<stop  offset="0" style="stop-color:#D3A53C"/>
				<stop  offset="0.2016" style="stop-color:#F8DF7A"/>
				<stop  offset="0.4162" style="stop-color:#F1D46E"/>
				<stop  offset="0.4297" style="stop-color:#ECCC65"/>
				<stop  offset="0.491" style="stop-color:#D6AD43"/>
				<stop  offset="0.5492" style="stop-color:#C7972B"/>
				<stop  offset="0.6026" style="stop-color:#BD8A1C"/>
				<stop  offset="0.6466" style="stop-color:#BA8517"/>
				<stop  offset="0.6823" style="stop-color:#C6982F"/>
				<stop  offset="0.7499" style="stop-color:#DAB756"/>
				<stop  offset="0.8168" style="stop-color:#E9CF75"/>
				<stop  offset="0.8817" style="stop-color:#F4E18B"/>
				<stop  offset="0.9438" style="stop-color:#FBEB98"/>
				<stop  offset="1" style="stop-color:#FDEF9D"/>
			</linearGradient>
			<path style="fill:url(#SVGID_00000107569351050864276300000010264226447618710410_);" d="M173.417,114.59
				c0.954-0.364,1.703-1.211,1.703-2.541c0-2.261-2.171-3.126-3.83-2.593c-1.55,0.796-2.473,2.944-0.874,4.543
				C171.357,114.939,172.485,115.008,173.417,114.59z"/>
			
				<linearGradient id="SVGID_00000085946810698952858010000013037541900481044884_" gradientUnits="userSpaceOnUse" x1="225.6554" y1="114.0089" x2="229.5666" y2="110.0977">
				<stop  offset="0" style="stop-color:#D3A53C"/>
				<stop  offset="0.2016" style="stop-color:#F8DF7A"/>
				<stop  offset="0.4162" style="stop-color:#F1D46E"/>
				<stop  offset="0.4297" style="stop-color:#ECCC65"/>
				<stop  offset="0.491" style="stop-color:#D6AD43"/>
				<stop  offset="0.5492" style="stop-color:#C7972B"/>
				<stop  offset="0.6026" style="stop-color:#BD8A1C"/>
				<stop  offset="0.6466" style="stop-color:#BA8517"/>
				<stop  offset="0.6823" style="stop-color:#C6982F"/>
				<stop  offset="0.7499" style="stop-color:#DAB756"/>
				<stop  offset="0.8168" style="stop-color:#E9CF75"/>
				<stop  offset="0.8817" style="stop-color:#F4E18B"/>
				<stop  offset="0.9438" style="stop-color:#FBEB98"/>
				<stop  offset="1" style="stop-color:#FDEF9D"/>
			</linearGradient>
			<path style="fill:url(#SVGID_00000085946810698952858010000013037541900481044884_);" d="M226.582,114.59
				c0.933,0.417,2.061,0.349,3.002-0.592c1.599-1.599,0.675-3.747-0.874-4.543c-1.66-0.532-3.831,0.332-3.831,2.593
				C224.879,113.379,225.628,114.227,226.582,114.59z"/>
		</g>
		<g>
			
				<linearGradient id="SVGID_00000076603690467204850730000013423885628324209840_" gradientUnits="userSpaceOnUse" x1="174.78" y1="205.2347" x2="226.135" y2="153.8797">
				<stop  offset="0" style="stop-color:#D3A53C"/>
				<stop  offset="0.2016" style="stop-color:#F8DF7A"/>
				<stop  offset="0.4162" style="stop-color:#F1D46E"/>
				<stop  offset="0.4297" style="stop-color:#ECCC65"/>
				<stop  offset="0.491" style="stop-color:#D6AD43"/>
				<stop  offset="0.5492" style="stop-color:#C7972B"/>
				<stop  offset="0.6026" style="stop-color:#BD8A1C"/>
				<stop  offset="0.6466" style="stop-color:#BA8517"/>
				<stop  offset="0.6823" style="stop-color:#C6982F"/>
				<stop  offset="0.7499" style="stop-color:#DAB756"/>
				<stop  offset="0.8168" style="stop-color:#E9CF75"/>
				<stop  offset="0.8817" style="stop-color:#F4E18B"/>
				<stop  offset="0.9438" style="stop-color:#FBEB98"/>
				<stop  offset="1" style="stop-color:#FDEF9D"/>
			</linearGradient>
			<path style="fill:url(#SVGID_00000076603690467204850730000013423885628324209840_);" d="M175.113,203.875
				c1.261,0,2.342-0.469,3.278-1.369c0.902-0.937,1.369-2.018,1.441-3.314v-40.925c-0.072-1.765-0.865-3.099-2.45-3.999
				c-0.685-0.396-1.441-0.577-2.269-0.577h-0.973v-0.757h22.444l-0.071,0.757h-0.902c-1.765,0-3.134,0.757-4.07,2.269
				c-0.433,0.721-0.649,1.477-0.649,2.306v40.925c0,1.297,0.469,2.377,1.404,3.314c0.937,0.9,2.018,1.369,3.315,1.369h0.902
				l0.071,0.72h-22.444v-0.72H175.113z M228.359,204.595h-6.053c-7.457,0-12.753-2.054-15.851-6.124
				c-8.791-11.96-13.221-18.013-13.221-18.23l17.509-23.164c0.396-0.504,0.576-0.937,0.576-1.333c0-0.396-0.072-0.72-0.216-1.008
				c-0.396-0.757-1.081-1.118-2.054-1.118h-0.757v-0.685h16.896v0.685h-0.288c-3.279,0-5.98,1.19-8.034,3.53l-14.411,17.041
				L220.83,199.3c2.269,2.918,4.791,4.468,7.529,4.576V204.595z"/>
		</g>
	</g>
</g>
</svg>
